<?xml version="1.0" encoding="utf-8"?>
<!-- Generator: Adobe Illustrator 16.0.0, SVG Export Plug-In . SVG Version: 6.00 Build 0)  -->
<!DOCTYPE svg PUBLIC "-//W3C//DTD SVG 1.1//EN" "http://www.w3.org/Graphics/SVG/1.1/DTD/svg11.dtd">
<svg version="1.1" id="Layer_1" xmlns="http://www.w3.org/2000/svg" xmlns:xlink="http://www.w3.org/1999/xlink" x="0px" y="0px"
	 width="841.891px" height="595.279px" viewBox="0 0 841.891 595.279" enable-background="new 0 0 841.891 595.279"
	 xml:space="preserve">
<g id="shops">
	<g id="ground_1_">
		<g>
			<path fill="#F2F2F2" d="M479.826,394.557"/>
			<polygon fill="#F2F2F2" points="801.936,304.939 801.981,305.647 802.688,315.782 808.258,315.394 807.923,310.623 
				809.139,310.534 808.712,304.466 			"/>
			
				<rect x="153.475" y="332.502" transform="matrix(0.9976 -0.0695 0.0695 0.9976 -23.2353 11.8079)" fill="#F2F2F2" width="9.189" height="14.614"/>
			
				<rect x="178.89" y="330.774" transform="matrix(0.9975 -0.0701 0.0701 0.9975 -23.2449 13.6362)" fill="#F2F2F2" width="7.636" height="14.621"/>
			
				<rect x="192.45" y="302.724" transform="matrix(0.9976 -0.0696 0.0696 0.9976 -21.1205 14.477)" fill="#F2F2F2" width="9.241" height="14.856"/>
			
				<rect x="127.502" y="281.386" transform="matrix(0.9976 -0.0696 0.0696 0.9976 -20.1679 9.9996)" fill="#F2F2F2" width="11.667" height="25.746"/>
			
				<rect x="179.002" y="277.858" transform="matrix(0.9976 -0.0697 0.0697 0.9976 -19.8295 13.51)" fill="#F2F2F2" width="9.115" height="25.746"/>
			
				<rect x="188.139" y="277.129" transform="matrix(0.9976 -0.0698 0.0698 0.9976 -19.7773 14.27)" fill="#F2F2F2" width="12.139" height="25.746"/>
			<polygon fill="#F2F2F2" points="317.813,368.344 297.246,369.773 296.099,353.41 316.661,351.903 			"/>
			
				<rect x="294.431" y="336.915" transform="matrix(0.9976 -0.0693 0.0693 0.9976 -23.1968 21.5522)" fill="#F2F2F2" width="9.031" height="16.203"/>
			
				<rect x="318.536" y="335.012" transform="matrix(0.9976 -0.0699 0.0699 0.9976 -23.1799 23.6281)" fill="#F2F2F2" width="15.163" height="16.207"/>
			<polygon fill="#F2F2F2" points="559.695,279.055 550.712,279.683 549.771,266.248 558.762,265.621 			"/>
			<polygon fill="#F2F2F2" points="569.868,278.344 559.695,279.055 558.762,265.621 568.928,264.908 			"/>
			<polygon fill="#F2F2F2" points="107.992,323.355 108.47,330.196 114.628,335.519 115.6,349.397 93.837,350.916 91.992,324.533 
							"/>
			<polygon fill="#F2F2F2" points="316.661,351.903 317.813,368.344 339.879,366.805 334.953,361.321 334.207,350.672 			"/>
			
				<rect x="297.136" y="304.427" transform="matrix(0.9976 -0.0693 0.0693 0.9976 -21.0119 21.7219)" fill="#F2F2F2" width="10.521" height="18.219"/>
			
				<rect x="534.807" y="286.064" transform="matrix(0.0696 0.9976 -0.9976 0.0696 795.2209 -266.0005)" fill="#F2F2F2" width="10.825" height="14.545"/>
			<polygon fill="#F2F2F2" points="580.836,297.117 587.991,296.618 587.152,284.624 574.907,285.479 575.749,297.472 			"/>
			
				<rect x="517.095" y="340.865" transform="matrix(0.9976 -0.0698 0.0698 0.9976 -22.7275 37.1358)" fill="#F2F2F2" width="6.299" height="6.106"/>
			<polygon fill="#F2F2F2" points="560.954,338.575 561.34,344.098 569.689,343.514 568.304,323.674 557.648,324.418 
				558.651,338.736 			"/>
			<polygon fill="#F2F2F2" points="335.742,239.348 345.691,228.245 334.9,227.3 			"/>
			<polygon fill="#F2F2F2" points="223.567,228.802 224.848,247.105 236.527,246.291 235.229,227.718 			"/>
			<polygon fill="#F2F2F2" points="476.901,272.92 477.548,282.154 486.697,281.516 486.057,272.277 			"/>
			<polygon fill="#F2F2F2" points="718.888,326.854 712.581,327.297 714.083,348.786 720.581,347.84 719.115,326.839 			"/>
			<polygon fill="#F2F2F2" points="221.623,296.325 201.162,297.696 199.689,276.657 220.153,275.287 			"/>
			
				<rect x="180.432" y="303.469" transform="matrix(0.9976 -0.0697 0.0697 0.9976 -21.2262 13.7591)" fill="#F2F2F2" width="12.043" height="14.853"/>
			
				<rect x="171.308" y="304.206" transform="matrix(0.9976 -0.0699 0.0699 0.9976 -21.3589 13.0603)" fill="#F2F2F2" width="9.148" height="14.858"/>
			
				<rect x="186.506" y="330.242" transform="matrix(0.9976 -0.0698 0.0698 0.9976 -23.0963 14.1076)" fill="#F2F2F2" width="7.639" height="14.622"/>
			<polygon fill="#F2F2F2" points="206.702,343.729 194.646,344.578 193.627,329.997 205.683,329.152 			"/>
			<polygon fill="#F2F2F2" points="36.048,260.583 25.27,261.319 34.79,242.625 			"/>
			<g>
				<g>
					<polygon fill="#F2F2F2" points="334.207,350.672 348.438,349.675 348.953,357.057 339.879,366.805 334.953,361.321 					"/>
					<g>
						<path fill="#F2F2F2" d="M39.774,314.049c-3.972,0.275-14.305,1.009-19.292,1.427l0.005,0.072l19.288-1.487L39.774,314.049z"/>
						<polygon fill="#F2F2F2" points="18.764,289.069 20.279,310.756 30.659,310.031 30.658,310.023 28.051,310.214 30.658,310.023 
							29.144,288.344 						"/>
					</g>
				</g>
				<g>
					<path fill="#F2F2F2" d="M357.445,396.322"/>
					<path fill="#F2F2F2" d="M108.002,322.397"/>
					<path fill="#F2F2F2" d="M485.945,256.76"/>
				</g>
			</g>
			<polygon fill="#F2F2F2" points="544.441,333.861 544.495,334.675 544.684,337.312 544.744,338.193 544.965,341.337 
				545.011,342.02 545.178,344.412 545.236,345.222 545.538,349.559 547.765,349.404 548.094,354.051 551.04,353.843 
				551.723,363.579 561.988,363.605 561.018,349.738 550.24,350.495 548.797,329.835 544.182,330.159 544.238,330.97 			"/>
			
				<rect x="540.413" y="331.074" transform="matrix(0.9975 -0.0702 0.0702 0.9975 -22.012 38.9092)" fill="#F2F2F2" width="3.935" height="2.893"/>
			<polygon fill="#F2F2F2" points="541.309,345.502 541.611,349.831 545.538,349.559 545.236,345.222 			"/>
			<polygon fill="#F2F2F2" points="544.495,334.675 540.568,334.953 540.757,337.584 544.684,337.312 			"/>
			
				<rect x="540.92" y="338.326" transform="matrix(0.9976 -0.0697 0.0697 0.9976 -22.3643 38.6539)" fill="#F2F2F2" width="3.938" height="3.149"/>
			
				<rect x="541.163" y="342.157" transform="matrix(0.9975 -0.0705 0.0705 0.9975 -22.8461 39.1287)" fill="#F2F2F2" width="3.936" height="2.392"/>
		</g>
		<g>
			<g>
				<g>
					<path fill="#D0D1D2" d="M752.708,195.843c-0.053,0.107-0.207,0.242-0.466,0.397c-0.162,0.065-0.305,0.118-0.426,0.159
						c-0.116,0.044-0.245,0.088-0.388,0.132c-0.142,0.044-0.271,0.074-0.392,0.098c-0.225,0.036-0.449,0.06-0.677,0.071
						c-0.228,0.014-0.396-0.046-0.503-0.173c-0.041-0.047-0.037-0.096,0.012-0.146c0.049-0.051,0.115-0.102,0.202-0.147
						s0.188-0.095,0.296-0.144c0.108-0.047,0.202-0.091,0.279-0.129c0.143-0.061,0.321-0.143,0.543-0.246
						c0.219-0.106,0.377-0.199,0.472-0.28c0.001-0.02-0.041-0.064-0.126-0.139c-0.086-0.074-0.18-0.153-0.28-0.239
						c-0.103-0.077-0.202-0.151-0.3-0.223c-0.099-0.072-0.152-0.115-0.166-0.131c-0.149-0.109-0.245-0.275-0.291-0.498
						c-0.044-0.224-0.05-0.452-0.018-0.69c0.048-0.223,0.104-0.321,0.166-0.294c0.064,0.027,0.146,0.096,0.238,0.206l0.439,0.514
						c0.126,0.147,0.253,0.286,0.382,0.413c0.128,0.128,0.243,0.237,0.351,0.33c0.098,0.09,0.212,0.188,0.347,0.292
						c0.068,0.061,0.125,0.112,0.166,0.16c0.045,0.043,0.087,0.095,0.124,0.153c0.037,0.06,0.063,0.117,0.078,0.18
						c0.01,0.075,0.007,0.138-0.009,0.188C752.753,195.716,752.733,195.775,752.708,195.843z M754.414,191.232l-1.76,1.109
						c-0.115,0.08-0.215,0.134-0.302,0.162c-0.096,0.024-0.193,0.035-0.297,0.026s-0.198-0.06-0.29-0.153
						c-0.033-0.02-0.085-0.049-0.154-0.095c-0.071-0.045-0.146-0.101-0.229-0.165c-0.079-0.062-0.157-0.125-0.232-0.19
						c-0.076-0.066-0.132-0.126-0.166-0.179c-0.072-0.085-0.13-0.164-0.171-0.237c-0.041-0.075-0.073-0.17-0.1-0.285
						c-0.019-0.03-0.028-0.059-0.03-0.084c-0.003-0.024-0.007-0.049-0.01-0.073c0.003-0.027,0.004-0.058,0.003-0.085
						c0-0.025-0.001-0.059-0.004-0.093c-0.068,0.059-0.142,0.086-0.217,0.083s-0.146-0.027-0.212-0.071
						c-0.076-0.045-0.132-0.103-0.168-0.173c-0.036-0.066-0.04-0.144-0.008-0.225c0.031-0.111,0.133-0.265,0.3-0.457
						s0.354-0.396,0.558-0.605c0.203-0.211,0.396-0.412,0.585-0.604c0.188-0.192,0.317-0.34,0.396-0.442
						c0.034-0.056,0.073-0.114,0.121-0.171c0.046-0.059,0.089-0.112,0.127-0.163c0.043-0.056,0.084-0.107,0.123-0.161
						c0.038-0.05,0.072-0.1,0.105-0.146c0.033-0.058,0.07-0.087,0.11-0.097c0.04-0.007,0.079-0.003,0.117,0.012
						c0.037,0.012,0.069,0.026,0.096,0.048c0.025,0.02,0.041,0.03,0.046,0.036c0.16,0.21,0.238,0.4,0.234,0.579
						c-0.005,0.177-0.038,0.306-0.104,0.391c0.061,0.059,0.143,0.146,0.244,0.262c0.104,0.116,0.219,0.241,0.342,0.374
						c0.117,0.126,0.237,0.251,0.36,0.374c0.124,0.123,0.23,0.224,0.323,0.298c0.089,0.063,0.177,0.133,0.266,0.213
						c0.087,0.08,0.15,0.174,0.191,0.272c0.041,0.103,0.05,0.213,0.025,0.333C754.612,190.971,754.537,191.098,754.414,191.232z
						 M751.376,190.274l-0.326,0.321c0.028,0.056,0.069,0.119,0.121,0.188c0.051,0.07,0.125,0.146,0.222,0.229
						c0.17,0.154,0.334,0.279,0.491,0.372c0.158,0.094,0.28,0.144,0.369,0.151c0.015-0.006,0.084-0.045,0.208-0.117
						c0.122-0.074,0.26-0.157,0.409-0.249c0.149-0.103,0.294-0.197,0.433-0.287s0.229-0.156,0.275-0.196
						c-0.025-0.031-0.08-0.091-0.158-0.179c-0.08-0.088-0.171-0.179-0.271-0.275c-0.092-0.096-0.18-0.185-0.264-0.267
						c-0.085-0.083-0.142-0.143-0.168-0.172c-0.051-0.048-0.09-0.09-0.119-0.124c-0.028-0.034-0.057-0.064-0.078-0.09
						c-0.031-0.027-0.061-0.057-0.081-0.08c-0.021-0.027-0.048-0.058-0.074-0.088c-0.063,0.045-0.145,0.108-0.244,0.194
						s-0.201,0.174-0.309,0.266c-0.105,0.09-0.2,0.173-0.284,0.25C751.443,190.2,751.393,190.251,751.376,190.274z M757.324,193.654
						c-0.411,0.3-0.793,0.56-1.146,0.778c-0.354,0.222-0.749,0.46-1.188,0.716c-0.117,0.065-0.245,0.127-0.38,0.188
						c-0.136,0.061-0.271,0.105-0.405,0.142c-0.126,0.035-0.241,0.052-0.348,0.051c-0.105-0.001-0.182-0.03-0.226-0.094
						c-0.051-0.059-0.063-0.117-0.041-0.178c0.021-0.062,0.063-0.123,0.121-0.193c0.059-0.06,0.134-0.125,0.223-0.196
						c0.089-0.07,0.181-0.147,0.275-0.229c0.126-0.108,0.271-0.224,0.439-0.349c0.167-0.125,0.344-0.254,0.53-0.389
						c-0.052-0.038-0.092-0.067-0.122-0.095c-0.028-0.021-0.063-0.05-0.094-0.077c-0.026-0.021-0.058-0.042-0.087-0.062
						c-0.03-0.021-0.067-0.044-0.109-0.071c-0.064-0.044-0.127-0.086-0.186-0.122c-0.06-0.036-0.116-0.076-0.173-0.119
						c-0.05-0.048-0.099-0.099-0.144-0.149c-0.046-0.055-0.085-0.115-0.118-0.188c-0.073-0.129-0.126-0.246-0.157-0.352
						c-0.03-0.106-0.03-0.231,0-0.376c0.002-0.029,0.015-0.068,0.035-0.119c0.021-0.05,0.048-0.094,0.08-0.131
						c0.036-0.041,0.08-0.063,0.13-0.063s0.107,0.028,0.179,0.088c0.091,0.098,0.188,0.191,0.286,0.287
						c0.103,0.097,0.209,0.195,0.324,0.298c0.113,0.112,0.236,0.229,0.366,0.353c0.132,0.12,0.279,0.256,0.444,0.403l0.98-0.853
						l0.395-0.708c0.041-0.091,0.08-0.151,0.116-0.183c0.042-0.036,0.086-0.055,0.134-0.054c0.047,0.001,0.097,0.043,0.148,0.126
						c0.077,0.153,0.139,0.364,0.188,0.636c0.048,0.27,0.051,0.5,0.006,0.691c-0.03,0.092-0.094,0.192-0.187,0.303
						C757.529,193.478,757.431,193.573,757.324,193.654z"/>
					<path fill="#D0D1D2" d="M757.21,200.601c-0.096,0.081-0.182,0.141-0.259,0.18c-0.075,0.038-0.156,0.039-0.242,0.003
						c-0.119-0.043-0.193-0.119-0.223-0.232c-0.028-0.113-0.021-0.227,0.021-0.334c0.087-0.24,0.129-0.541,0.128-0.905l-0.023-0.443
						c-0.262,0.006-0.474,0.009-0.636,0.011s-0.319,0.005-0.473,0.008s-0.248,0.004-0.288,0c-0.063,0.001-0.171-0.008-0.319-0.021
						c-0.147-0.015-0.296-0.042-0.438-0.082c-0.13-0.032-0.258-0.082-0.384-0.145c-0.125-0.063-0.18-0.146-0.161-0.251
						c0.005-0.05,0.045-0.097,0.125-0.144c0.08-0.046,0.249-0.076,0.507-0.099c0.145-0.013,0.306-0.025,0.485-0.039
						c0.181-0.013,0.364-0.024,0.553-0.043c0.188-0.015,0.377-0.029,0.563-0.045c0.188-0.014,0.366-0.03,0.536-0.047
						c0.479-0.056,0.833-0.098,1.058-0.125c0.224-0.026,0.335-0.045,0.336-0.055c-0.005-0.017-0.045-0.055-0.125-0.113
						c-0.078-0.062-0.164-0.128-0.257-0.204c-0.094-0.064-0.217-0.157-0.369-0.271c-0.112-0.068-0.204-0.134-0.272-0.191
						c-0.068-0.059-0.136-0.128-0.197-0.207c-0.063-0.079-0.104-0.165-0.119-0.26c-0.025-0.125-0.032-0.253-0.021-0.385
						c0.011-0.134,0.068-0.255,0.176-0.363c0.026-0.032,0.073-0.029,0.141,0.011c0.064,0.039,0.137,0.094,0.215,0.164
						c0.084,0.076,0.17,0.157,0.26,0.246c0.089,0.087,0.17,0.164,0.242,0.229c0.156,0.149,0.3,0.273,0.43,0.372
						c0.131,0.101,0.256,0.192,0.377,0.28s0.243,0.175,0.367,0.26c0.124,0.086,0.257,0.188,0.4,0.302
						c0.133,0.112,0.193,0.231,0.184,0.356c-0.014,0.124-0.057,0.223-0.131,0.296c-0.09,0.076-0.192,0.144-0.311,0.197
						c-0.119,0.054-0.211,0.09-0.281,0.104c-0.01-0.001-0.076,0.011-0.2,0.029c-0.126,0.021-0.26,0.041-0.403,0.064
						c-0.153,0.021-0.352,0.054-0.59,0.095l-0.328,0.048c0.081,0.287,0.134,0.525,0.158,0.714c0.024,0.189,0.027,0.382,0.011,0.579
						C757.41,200.341,757.336,200.493,757.21,200.601z M761.64,202.352c-0.08,0.034-0.174,0.047-0.278,0.042
						c-0.104-0.006-0.214-0.017-0.326-0.029c-0.146-0.021-0.273-0.057-0.387-0.105c-0.11-0.05-0.219-0.108-0.321-0.176
						c-0.085-0.046-0.156-0.1-0.217-0.157c-0.061-0.061-0.11-0.119-0.155-0.182c-0.049-0.067-0.097-0.139-0.143-0.206
						c-0.047-0.07-0.095-0.142-0.145-0.207c-0.099,0.063-0.206,0.143-0.323,0.229c-0.116,0.086-0.244,0.18-0.379,0.277
						c-0.136,0.097-0.273,0.192-0.417,0.289c-0.145,0.094-0.284,0.183-0.423,0.266c-0.118,0.064-0.242,0.13-0.373,0.195
						c-0.131,0.064-0.256,0.12-0.377,0.159c-0.126,0.033-0.24,0.048-0.344,0.04c-0.104-0.01-0.188-0.053-0.255-0.132
						c-0.051-0.058-0.063-0.112-0.039-0.166c0.023-0.053,0.068-0.105,0.139-0.166c0.063-0.063,0.143-0.131,0.232-0.198
						c0.09-0.068,0.183-0.146,0.271-0.233c0.085-0.081,0.253-0.228,0.503-0.437c0.249-0.209,0.508-0.426,0.775-0.646
						c0.263-0.217,0.604-0.489,1.021-0.821l1.248-1.067l0.443-0.873c0.055-0.064,0.104-0.104,0.147-0.113
						c0.047-0.021,0.094-0.021,0.142-0.005c0.047,0.019,0.094,0.074,0.136,0.166c0.055,0.181,0.097,0.342,0.125,0.479
						c0.028,0.132,0.048,0.271,0.057,0.417c0.009,0.148-0.007,0.275-0.045,0.382c-0.043,0.109-0.086,0.194-0.13,0.257
						c-0.045,0.06-0.13,0.144-0.256,0.252c-0.059,0.05-0.132,0.106-0.221,0.176c-0.09,0.066-0.188,0.14-0.29,0.221
						c-0.109,0.085-0.228,0.177-0.351,0.271c-0.122,0.095-0.248,0.195-0.38,0.299c0.114,0.103,0.231,0.205,0.353,0.308
						c0.121,0.104,0.24,0.203,0.359,0.303c0.115,0.103,0.233,0.204,0.356,0.305c0.122,0.1,0.245,0.202,0.37,0.305
						c0.056,0.056,0.064,0.108,0.031,0.165C761.749,202.289,761.7,202.33,761.64,202.352z"/>
					<path fill="#D0D1D2" d="M763.443,210.613c-0.101,0.076-0.216,0.125-0.349,0.146c-0.132,0.021-0.267,0.027-0.402,0.017
						c-0.132-0.016-0.26-0.047-0.384-0.096c-0.124-0.05-0.228-0.104-0.305-0.164c-0.216-0.154-0.402-0.292-0.564-0.413
						c-0.163-0.12-0.313-0.237-0.445-0.351c-0.139-0.109-0.264-0.226-0.375-0.346c-0.111-0.116-0.225-0.253-0.334-0.403
						c-0.121-0.151-0.197-0.277-0.229-0.379c-0.03-0.104,0.002-0.218,0.102-0.348c0.027-0.042,0.066-0.09,0.118-0.142
						c0.052-0.054,0.107-0.112,0.172-0.176c0.06-0.061,0.121-0.126,0.186-0.199c0.064-0.074,0.131-0.157,0.196-0.25
						c0.044-0.066,0.077-0.118,0.099-0.159c0.021-0.041,0.041-0.079,0.063-0.116c0.019-0.031,0.041-0.065,0.07-0.103
						c0.029-0.034,0.078-0.085,0.146-0.154c0.115-0.089,0.239-0.102,0.372-0.037c0.134,0.065,0.265,0.188,0.394,0.37
						c0.118,0.117,0.217,0.21,0.295,0.28c0.078,0.069,0.148,0.132,0.216,0.187c0.063,0.056,0.127,0.106,0.189,0.159
						c0.063,0.051,0.139,0.114,0.23,0.19c0.069-0.016,0.129-0.03,0.177-0.05c0.05-0.02,0.097-0.044,0.144-0.073
						c0.041-0.026,0.083-0.057,0.125-0.086c0.042-0.031,0.091-0.066,0.147-0.106c0.025-0.021,0.012-0.067-0.044-0.14
						c-0.058-0.071-0.109-0.131-0.159-0.18c-0.149-0.109-0.355-0.304-0.619-0.578c-0.163-0.3-0.229-0.558-0.198-0.775
						c0.021-0.081,0.04-0.144,0.06-0.187c0.027-0.042,0.063-0.077,0.104-0.104c0.042-0.025,0.093-0.024,0.155,0.006
						c0.155,0.192,0.299,0.362,0.425,0.504c0.127,0.145,0.291,0.315,0.492,0.521c0.075,0.078,0.141,0.144,0.19,0.189
						c0.05,0.048,0.094,0.088,0.131,0.12c0.041,0.038,0.082,0.073,0.125,0.106c0.041,0.031,0.098,0.078,0.166,0.138
						c0.06,0.059,0.108,0.123,0.149,0.192c0.042,0.067,0.069,0.144,0.082,0.224c0.008,0.094-0.011,0.194-0.057,0.302
						c-0.045,0.108-0.1,0.18-0.159,0.214c-0.063,0.024-0.113,0.05-0.157,0.071c-0.044,0.024-0.088,0.047-0.134,0.067
						c-0.042,0.017-0.084,0.037-0.131,0.063c-0.046,0.027-0.099,0.057-0.154,0.084c-0.064,0.029-0.119,0.06-0.16,0.084
						c-0.043,0.025-0.08,0.051-0.116,0.071c-0.041,0.026-0.089,0.053-0.14,0.078c-0.052,0.023-0.114,0.058-0.191,0.097
						c-0.044,0.011-0.09,0.024-0.137,0.04c-0.045,0.019-0.095,0.021-0.146,0.012c-0.062-0.005-0.122-0.022-0.188-0.059
						c-0.064-0.035-0.139-0.093-0.216-0.172c-0.092-0.086-0.188-0.176-0.285-0.271c-0.099-0.092-0.193-0.178-0.285-0.253
						c-0.089-0.081-0.164-0.144-0.229-0.188c-0.064-0.045-0.102-0.064-0.104-0.063c-0.054,0.035-0.128,0.109-0.229,0.225
						c-0.101,0.11-0.19,0.217-0.271,0.313c-0.04,0.071,0.018,0.186,0.169,0.335c0.152,0.152,0.327,0.306,0.521,0.458
						c0.193,0.162,0.462,0.357,0.803,0.584c0.225,0.104,0.398,0.188,0.525,0.265c0.122,0.066,0.227,0.142,0.312,0.219
						C763.479,210.507,763.495,210.568,763.443,210.613z M765.847,203.954c0.091,0.03,0.159,0.097,0.206,0.191
						c0.046,0.1,0.077,0.207,0.092,0.332c0.017,0.114,0.021,0.233,0.018,0.354c-0.005,0.122-0.01,0.229-0.018,0.315
						c-0.045,0.074-0.082,0.127-0.111,0.156c-0.027,0.03-0.063,0.056-0.099,0.077c-0.041,0.025-0.091,0.055-0.146,0.085
						s-0.126,0.082-0.21,0.153c-0.089,0.064-0.163,0.128-0.221,0.183c-0.06,0.054-0.109,0.109-0.153,0.165
						c0.073,0.074,0.15,0.155,0.235,0.242c0.084,0.088,0.164,0.172,0.242,0.251c0.087,0.081,0.166,0.156,0.237,0.229
						c0.068,0.071,0.135,0.139,0.193,0.196c0.184,0.181,0.341,0.338,0.473,0.471c0.128,0.14,0.261,0.283,0.397,0.435
						c0.14,0.149,0.25,0.287,0.334,0.404c0.054,0.073,0.065,0.144,0.038,0.205c-0.025,0.064-0.083,0.121-0.171,0.168
						c-0.125,0.025-0.229,0.034-0.317,0.027c-0.089-0.007-0.188-0.037-0.297-0.09c-0.096-0.047-0.188-0.108-0.276-0.188
						c-0.091-0.079-0.169-0.155-0.235-0.234c-0.072-0.074-0.15-0.173-0.234-0.291c-0.154-0.169-0.286-0.317-0.395-0.443
						c-0.112-0.121-0.234-0.253-0.364-0.394c-0.13-0.143-0.252-0.269-0.364-0.38c-0.109-0.098-0.242-0.217-0.395-0.354
						c-0.15-0.141-0.299-0.272-0.44-0.397c-0.145-0.123-0.313-0.271-0.512-0.449c-0.121-0.078-0.22-0.15-0.293-0.216
						c-0.078-0.062-0.16-0.133-0.244-0.216c-0.086-0.083-0.148-0.165-0.191-0.247c-0.049-0.064-0.089-0.124-0.119-0.172
						c-0.03-0.046-0.055-0.095-0.068-0.146c-0.025-0.051-0.046-0.11-0.058-0.178c-0.013-0.066-0.02-0.159-0.02-0.277
						c-0.011-0.203,0.024-0.365,0.104-0.486c0.039-0.061,0.101-0.068,0.185-0.024c0.082,0.044,0.171,0.108,0.268,0.198
						c0.093,0.087,0.182,0.18,0.268,0.272s0.146,0.164,0.184,0.206c0.02,0.021,0.064,0.076,0.141,0.162
						c0.073,0.087,0.163,0.186,0.27,0.298c0.107,0.116,0.229,0.242,0.356,0.377c0.13,0.136,0.263,0.27,0.395,0.403l0.722-0.66
						c0.06-0.062,0.114-0.133,0.165-0.225c0.053-0.09,0.098-0.175,0.139-0.255c0.051-0.079,0.1-0.146,0.145-0.199
						C765.737,203.944,765.788,203.929,765.847,203.954z M769.216,205.587c-0.052,0.151-0.115,0.266-0.191,0.335
						c-0.075,0.068-0.201,0.146-0.375,0.231c-0.266,0.117-0.479,0.203-0.644,0.259c-0.164,0.054-0.294,0.089-0.39,0.104
						c-0.09,0.023-0.17,0.032-0.237,0.027c-0.211,0.052-0.389,0.085-0.531,0.098c-0.139,0.01-0.278,0.003-0.422-0.021
						c-0.145-0.024-0.253-0.086-0.329-0.187c-0.04-0.048-0.037-0.097,0.012-0.146c0.049-0.053,0.115-0.101,0.203-0.146
						c0.093-0.052,0.191-0.101,0.3-0.146c0.105-0.049,0.197-0.088,0.274-0.127c0.064-0.029,0.158-0.07,0.277-0.122
						c0.119-0.055,0.241-0.113,0.364-0.184c0.123-0.06,0.237-0.119,0.347-0.18c0.106-0.063,0.188-0.113,0.24-0.158
						c-0.143-0.198-0.291-0.388-0.445-0.568c-0.156-0.183-0.301-0.346-0.432-0.485c-0.137-0.149-0.252-0.271-0.346-0.363
						c-0.094-0.094-0.146-0.146-0.161-0.164c-0.186-0.142-0.296-0.326-0.329-0.553s-0.034-0.458-0.001-0.697
						c0.041-0.218,0.12-0.313,0.239-0.288c0.118,0.027,0.223,0.101,0.313,0.213l0.367,0.493c0.179,0.25,0.356,0.484,0.54,0.702
						c0.183,0.219,0.349,0.409,0.498,0.573c0.146,0.158,0.313,0.334,0.505,0.523c0.067,0.07,0.125,0.131,0.17,0.185
						c0.045,0.053,0.088,0.112,0.127,0.18s0.066,0.133,0.089,0.199c0.009,0.074,0.011,0.143,0.006,0.206
						C769.249,205.445,769.237,205.513,769.216,205.587z"/>
					<path fill="#D0D1D2" d="M769.615,216.062c-0.053,0.109-0.208,0.242-0.466,0.398c-0.158,0.069-0.299,0.132-0.419,0.182
						c-0.113,0.051-0.237,0.098-0.373,0.141c-0.138,0.046-0.262,0.073-0.376,0.091c-0.124,0.016-0.245,0.029-0.364,0.047
						c-0.118,0.015-0.232,0.019-0.341,0.01c-0.107,0.001-0.206-0.012-0.296-0.042c-0.089-0.028-0.159-0.074-0.215-0.138
						c-0.04-0.047-0.037-0.099,0.013-0.147c0.048-0.05,0.114-0.099,0.203-0.146c0.087-0.05,0.186-0.098,0.295-0.146
						c0.108-0.048,0.202-0.091,0.278-0.13c0.144-0.058,0.323-0.14,0.543-0.245c0.22-0.104,0.376-0.2,0.472-0.281
						c0.002-0.02-0.04-0.063-0.125-0.139c-0.086-0.073-0.18-0.152-0.279-0.238c-0.104-0.077-0.202-0.149-0.301-0.224
						c-0.1-0.07-0.153-0.114-0.168-0.13c-0.147-0.111-0.245-0.276-0.289-0.499c-0.045-0.222-0.05-0.451-0.018-0.691
						c0.047-0.223,0.103-0.317,0.166-0.293c0.063,0.027,0.146,0.099,0.239,0.207l0.438,0.516c0.127,0.146,0.253,0.282,0.381,0.411
						c0.129,0.13,0.245,0.237,0.353,0.329c0.096,0.093,0.211,0.188,0.346,0.293c0.069,0.062,0.125,0.112,0.165,0.159
						c0.046,0.044,0.087,0.095,0.124,0.155c0.037,0.059,0.063,0.117,0.078,0.179c0.011,0.073,0.008,0.14-0.007,0.19
						C769.659,215.933,769.642,215.996,769.615,216.062z M771.475,213.115l0.006,0.01c-0.059,0.059-0.105,0.104-0.143,0.136
						s-0.074,0.059-0.109,0.08c-0.031,0.025-0.067,0.052-0.108,0.073c-0.041,0.021-0.087,0.055-0.141,0.1
						c-0.094,0.062-0.157,0.107-0.191,0.137c-0.034,0.03-0.072,0.071-0.114,0.127l0.636,0.632c0.331,0.304,0.588,0.55,0.771,0.739
						c0.178,0.188,0.328,0.358,0.454,0.521c0.124,0.162,0.144,0.255,0.052,0.275c-0.146,0.033-0.294,0.04-0.446,0.021
						c-0.152-0.021-0.319-0.069-0.502-0.153c-0.08-0.03-0.162-0.075-0.243-0.133s-0.156-0.112-0.229-0.161
						c-0.063-0.054-0.138-0.118-0.221-0.194c-0.148-0.173-0.279-0.324-0.394-0.458c-0.112-0.131-0.232-0.27-0.362-0.413
						c-0.129-0.146-0.251-0.279-0.362-0.4c-0.114-0.112-0.22-0.208-0.311-0.289c-0.093-0.081-0.184-0.162-0.271-0.243
						c-0.093-0.076-0.188-0.154-0.284-0.232c-0.097-0.082-0.2-0.174-0.312-0.271l-0.709-0.571c-0.151-0.324-0.235-0.604-0.253-0.838
						c-0.004-0.195,0.033-0.354,0.111-0.479c0.039-0.063,0.102-0.071,0.188-0.03c0.086,0.042,0.177,0.107,0.271,0.199
						c0.091,0.085,0.18,0.174,0.264,0.268c0.084,0.093,0.145,0.159,0.181,0.201l1.313,1.355l0.604-0.588l0.114-0.153
						c-0.035-0.042-0.064-0.087-0.089-0.136c-0.023-0.051-0.038-0.104-0.043-0.162c-0.013-0.034-0.021-0.065-0.028-0.09
						c-0.01-0.025-0.015-0.053-0.018-0.075c-0.003-0.025-0.005-0.057-0.005-0.086c0-0.032,0.007-0.067,0.021-0.105
						c-0.068,0.061-0.143,0.086-0.218,0.083s-0.146-0.025-0.212-0.071c-0.074-0.046-0.131-0.103-0.168-0.172
						c-0.036-0.067-0.038-0.144-0.009-0.226c0.032-0.111,0.121-0.252,0.267-0.426c0.145-0.174,0.302-0.354,0.474-0.535
						c0.171-0.186,0.338-0.361,0.502-0.532c0.163-0.172,0.283-0.31,0.36-0.411c0.032-0.057,0.072-0.114,0.119-0.171
						c0.047-0.06,0.089-0.113,0.127-0.164c0.045-0.057,0.084-0.107,0.123-0.161c0.038-0.051,0.074-0.1,0.106-0.146
						c0.033-0.058,0.07-0.088,0.11-0.095c0.04-0.009,0.078-0.005,0.116,0.01c0.038,0.013,0.069,0.026,0.097,0.048
						c0.024,0.019,0.041,0.031,0.045,0.036c0.175,0.225,0.256,0.422,0.246,0.592c-0.012,0.168-0.049,0.294-0.114,0.377
						c0.061,0.06,0.146,0.15,0.256,0.274c0.11,0.125,0.231,0.258,0.363,0.399c0.127,0.14,0.256,0.271,0.386,0.402
						s0.241,0.231,0.333,0.309c0.09,0.063,0.179,0.132,0.266,0.213c0.087,0.08,0.15,0.173,0.192,0.272
						c0.041,0.103,0.05,0.213,0.025,0.335c-0.024,0.121-0.099,0.248-0.223,0.381l-1.521,0.907c-0.114,0.081-0.215,0.134-0.3,0.162
						c-0.097,0.024-0.195,0.036-0.298,0.026c-0.104-0.009-0.2-0.06-0.29-0.153L771.475,213.115z M771.275,211.108l-0.327,0.32
						c0.028,0.058,0.069,0.121,0.122,0.19c0.051,0.068,0.125,0.146,0.223,0.228c0.17,0.156,0.345,0.294,0.523,0.413
						c0.181,0.12,0.313,0.184,0.402,0.188c0.016-0.004,0.068-0.029,0.164-0.078c0.096-0.051,0.2-0.106,0.318-0.173
						c0.114-0.067,0.227-0.139,0.337-0.207c0.111-0.064,0.19-0.119,0.237-0.159c-0.026-0.031-0.085-0.099-0.174-0.194
						c-0.089-0.098-0.186-0.198-0.291-0.299c-0.1-0.106-0.194-0.204-0.285-0.296c-0.093-0.092-0.15-0.151-0.179-0.186l-0.368-0.382
						c-0.114,0.089-0.25,0.205-0.406,0.349C771.418,210.968,771.318,211.061,771.275,211.108z"/>
				</g>
			</g>
		</g>
	</g>
	<g id="clothing">
		<polygon fill="#FFFFFF" stroke="#CCCCCC" stroke-miterlimit="10" points="554.372,184.941 544.874,185.604 545.441,205.129 
			555.734,204.408 		"/>
		
			<rect x="380.342" y="263.788" transform="matrix(0.9976 -0.0697 0.0697 0.9976 -18.3088 27.4953)" fill="#FFFFFF" stroke="#CCCCCC" stroke-miterlimit="10" width="9.264" height="24.809"/>
		<polygon fill="#FFFFFF" stroke="#CCCCCC" stroke-miterlimit="10" points="514.151,301.78 514.982,313.772 533.572,312.472 
			532.732,300.48 		"/>
		
			<rect x="92.865" y="240.004" transform="matrix(-0.0698 -0.9976 0.9976 -0.0698 -137.0976 365.5167)" fill="#FFFFFF" stroke="#CCCCCC" stroke-miterlimit="10" width="18.003" height="13.347"/>
		
			<rect x="443.516" y="259.373" transform="matrix(0.9976 -0.0696 0.0696 0.9976 -17.832 31.856)" fill="#FFFFFF" stroke="#CCCCCC" stroke-miterlimit="10" width="9.259" height="24.808"/>
		<g>
			<g>
				<g>
					<g>
						
							<rect x="264.673" y="355.399" transform="matrix(0.9976 -0.0688 0.0688 0.9976 -24.399 19.2415)" fill="#FFFFFF" stroke="#CCCCCC" stroke-miterlimit="10" width="4.625" height="16.483"/>
					</g>
					<g>
						
							<rect x="269.311" y="354.948" transform="matrix(0.9975 -0.0701 0.0701 0.9975 -24.7736 20.0779)" fill="#FFFFFF" stroke="#CCCCCC" stroke-miterlimit="10" width="9.032" height="16.488"/>
					</g>
					<g>
						
							<rect x="278.231" y="354.29" transform="matrix(0.9976 -0.0693 0.0693 0.9976 -24.4539 20.4832)" fill="#FFFFFF" stroke="#CCCCCC" stroke-miterlimit="10" width="9.254" height="16.482"/>
					</g>
					<g>
						<polygon fill="#FFFFFF" stroke="#CCCCCC" stroke-miterlimit="10" points="297.246,369.788 288.018,370.431 286.865,353.983 
							296.096,353.342 						"/>
					</g>
					<g>
						
							<rect x="333.377" y="333.995" transform="matrix(0.9976 -0.0698 0.0698 0.9976 -22.7785 24.5983)" fill="#FFFFFF" stroke="#CCCCCC" stroke-miterlimit="10" width="14.239" height="8.317"/>
					</g>
					<g>
						
							<rect x="333.947" y="342.415" transform="matrix(0.9975 -0.07 0.07 0.9975 -23.4142 24.7354)" fill="#FFFFFF" stroke="#CCCCCC" stroke-miterlimit="10" width="14.238" height="7.767"/>
					</g>
					<g>
						
							<rect x="285.851" y="270.323" transform="matrix(0.9976 -0.0696 0.0696 0.9976 -19.0416 21.02)" fill="#FFFFFF" stroke="#CCCCCC" stroke-miterlimit="10" width="12.2" height="26.567"/>
					</g>
					<g>
						
							<rect x="322.364" y="276.918" transform="matrix(0.9976 -0.0698 0.0698 0.9976 -18.8368 23.9368)" fill="#FFFFFF" stroke="#CCCCCC" stroke-miterlimit="10" width="21.332" height="9.072"/>
					</g>
					<g>
						
							<rect x="322.974" y="285.994" transform="matrix(0.9976 -0.0696 0.0696 0.9976 -19.4087 23.922)" fill="#FFFFFF" stroke="#CCCCCC" stroke-miterlimit="10" width="21.331" height="9.066"/>
					</g>
					<g>
						
							<rect x="323.604" y="294.972" transform="matrix(0.9976 -0.0697 0.0697 0.9976 -20.0607 24.0244)" fill="#FFFFFF" stroke="#CCCCCC" stroke-miterlimit="10" width="21.327" height="9.068"/>
					</g>
					<g>
						
							<rect x="369.197" y="299.831" transform="matrix(0.9976 -0.0698 0.0698 0.9976 -20.3333 27.0537)" fill="#FFFFFF" stroke="#CCCCCC" stroke-miterlimit="10" width="15.202" height="9.069"/>
					</g>
					<g>
						<polygon fill="#FFFFFF" stroke="#CCCCCC" stroke-miterlimit="10" points="400.801,365.612 391.71,365.828 390.567,349.478 
							399.746,349.216 						"/>
					</g>
					<g>
						<polygon fill="#FFFFFF" stroke="#CCCCCC" stroke-miterlimit="10" points="410.027,365.301 400.873,365.596 399.732,349.253 
							408.91,348.986 						"/>
					</g>
					<g>
						<polygon fill="#FFFFFF" stroke="#CCCCCC" stroke-miterlimit="10" points="430.751,364.656 410.036,365.301 408.889,348.894 
							429.643,348.13 						"/>
					</g>
					<g>
						<polygon fill="#FFFFFF" stroke="#CCCCCC" stroke-miterlimit="10" points="444.388,364.208 430.813,364.639 429.661,348.156 
							443.196,347.608 						"/>
					</g>
					<g>
						<polygon fill="#FFFFFF" stroke="#CCCCCC" stroke-miterlimit="10" points="477.413,363.052 466.447,363.451 465.286,346.844 
							476.23,346.477 						"/>
					</g>
					<g>
						<polygon fill="#FFFFFF" stroke="#CCCCCC" stroke-miterlimit="10" points="489.797,362.648 477.317,363.066 476.161,346.546 
							488.618,346.251 						"/>
					</g>
					<g>
						<polygon fill="#FFFFFF" stroke="#CCCCCC" stroke-miterlimit="10" points="496.909,362.427 489.784,362.648 488.68,346.251 
							495.748,346.057 						"/>
					</g>
					<g>
						<polygon fill="#FFFFFF" stroke="#CCCCCC" stroke-miterlimit="10" points="506.034,362.071 496.898,362.433 495.807,346.04 
							504.866,345.703 						"/>
					</g>
					<g>
						<polygon fill="#FFFFFF" stroke="#CCCCCC" stroke-miterlimit="10" points="444.969,347.506 429.641,348.12 428.43,330.888 
							443.698,330.415 						"/>
					</g>
					<g>
						<polygon fill="#FFFFFF" stroke="#CCCCCC" stroke-miterlimit="10" points="460.149,346.885 444.95,347.516 443.76,330.45 
							459.01,329.966 						"/>
					</g>
					<g>
						
							<rect x="384.351" y="298.901" transform="matrix(0.9976 -0.0697 0.0697 0.9976 -20.2003 27.8993)" fill="#FFFFFF" stroke="#CCCCCC" stroke-miterlimit="10" width="10.733" height="9.07"/>
					</g>
					<g>
						<polygon fill="#FFFFFF" stroke="#CCCCCC" stroke-miterlimit="10" points="432.775,317.037 421.991,317.273 420.559,296.757 
							431.305,296.006 						"/>
					</g>
					<g>
						<polygon fill="#FFFFFF" stroke="#CCCCCC" stroke-miterlimit="10" points="492.93,346.148 485.252,346.328 484.076,329.478 
							491.962,329.263 						"/>
					</g>
					<g>
						<polygon fill="#FFFFFF" stroke="#CCCCCC" stroke-miterlimit="10" points="321.451,268.201 330.332,267.581 343.326,275.606 
							343.368,276.238 322.081,277.724 						"/>
					</g>
					<g>
						<polygon fill="#FFFFFF" stroke="#CCCCCC" stroke-miterlimit="10" points="239.268,357.307 240.418,373.764 255.086,372.743 
							254.234,360.589 248.206,361.007 247.904,356.711 						"/>
					</g>
					<g>
						<polygon fill="#FFFFFF" stroke="#CCCCCC" stroke-miterlimit="10" points="247.904,356.711 248.206,361.007 254.234,360.589 
							255.086,372.743 265.226,372.032 264.074,355.579 						"/>
					</g>
					<g>
						<polygon fill="#FFFFFF" stroke="#CCCCCC" stroke-miterlimit="10" points="547.933,299.419 547.848,298.223 533.339,299.238 
							534.264,312.425 539.283,312.079 549.613,314.439 555.702,314.016 554.649,298.948 						"/>
					</g>
					<g>
						<polygon fill="#FFFFFF" stroke="#CCCCCC" stroke-miterlimit="10" points="575.749,297.472 567.775,298.03 568.825,313.095 
							581.889,312.183 580.836,297.117 						"/>
					</g>
					<g>
						<polygon fill="#FFFFFF" stroke="#CCCCCC" stroke-miterlimit="10" points="742.483,279.568 742.556,280.61 737.195,280.986 
							737.655,287.513 758.836,286.037 758.306,278.458 						"/>
					</g>
					<g>
						<polygon fill="#FFFFFF" stroke="#CCCCCC" stroke-miterlimit="10" points="645.29,331.792 644.688,323.128 632.828,319.164 
							631.851,319.229 619.857,320.068 610.757,320.708 612.142,340.549 621.246,339.912 633.239,339.073 645.743,338.198 						"/>
					</g>
					<g>
						<polygon fill="#FFFFFF" stroke="#CCCCCC" stroke-miterlimit="10" points="295.277,223.837 296.554,242.09 314.746,240.818 
							313.672,225.446 						"/>
					</g>
					<g>
						<polygon fill="#FFFFFF" stroke="#CCCCCC" stroke-miterlimit="10" points="789.775,304.989 801.981,305.647 801.936,304.939 
							808.712,304.466 808.636,303.338 818.146,302.67 813.281,296.828 789.322,298.505 						"/>
					</g>
					<g>
						<polygon fill="#FFFFFF" stroke="#CCCCCC" stroke-miterlimit="10" points="247.016,245.554 258.943,244.721 257.611,225.645 
							245.699,226.751 						"/>
					</g>
				</g>
				<g>
					<polygon fill="#FFFFFF" stroke="#CCCCCC" stroke-miterlimit="10" points="700.192,328.162 701.762,350.574 714.083,348.786 
						712.581,327.297 					"/>
				</g>
			</g>
		</g>
		<g>
			<g>
				<g>
					<polygon fill="#FFFFFF" stroke="#CCCCCC" stroke-miterlimit="10" points="447.449,307.732 448.046,316.652 432.775,317.037 
						432.196,308.798 					"/>
				</g>
				<g>
					<polygon fill="#FFFFFF" stroke="#CCCCCC" stroke-miterlimit="10" points="502.186,303.907 488.206,304.882 488.971,315.791 
						502.995,315.526 					"/>
				</g>
			</g>
		</g>
		<polygon fill="#FFFFFF" stroke="#CCCCCC" stroke-miterlimit="10" points="371.715,340.363 372.38,349.861 390.611,349.512 
			389.91,340.008 		"/>
		<polygon fill="#FFFFFF" stroke="#CCCCCC" stroke-miterlimit="10" points="391.682,365.81 373.518,366.13 372.373,349.788 
			390.567,349.476 		"/>
		<g>
			<g>
				<g>
					<polygon fill="#FFFFFF" stroke="#CCCCCC" stroke-miterlimit="10" points="167.088,278.999 167.088,278.995 156.992,279.703 
						156.992,279.704 157.009,279.703 158.805,305.382 158.786,305.382 158.786,305.383 168.875,304.677 167.079,278.999 					"/>
				</g>
				<g>
					<polygon fill="#FFFFFF" stroke="#CCCCCC" stroke-miterlimit="10" points="167.088,278.999 168.887,304.677 168.875,304.677 
						168.875,304.678 179.896,303.908 178.099,278.225 					"/>
				</g>
				<g>
					<rect x="167.977" y="278.967" fill="#FFFFFF" stroke="#CCCCCC" stroke-miterlimit="10" width="0.009" height="25.742"/>
				</g>
				<g>
					<polygon fill="#FFFFFF" stroke="#CCCCCC" stroke-miterlimit="10" points="271.658,298.312 269.805,271.813 259.652,272.522 
						261.506,299.026 271.656,298.315 271.656,298.312 					"/>
				</g>
				<g>
					<polygon fill="#FFFFFF" stroke="#CCCCCC" stroke-miterlimit="10" points="271.687,298.31 279.319,297.775 277.465,271.276 
						269.805,271.813 269.805,271.813 269.833,271.811 					"/>
				</g>
				<g>
					
						<rect x="257.463" y="285.048" transform="matrix(0.0698 0.9976 -0.9976 0.0698 536.2172 -4.9179)" fill="#FFFFFF" stroke="#CCCCCC" stroke-miterlimit="10" width="26.566" height="0.027"/>
				</g>
				<g>
					<rect x="271.656" y="298.315" fill="#FFFFFF" stroke="#CCCCCC" stroke-miterlimit="10" width="0.003" height="0.002"/>
				</g>
				<g>
					<polygon fill="#FFFFFF" stroke="#CCCCCC" stroke-miterlimit="10" points="279.35,297.779 279.35,297.779 271.658,298.317 
						273.503,324.687 283.641,323.981 281.781,297.608 					"/>
				</g>
				<g>
					<rect x="271.656" y="298.312" fill="#FFFFFF" stroke="#CCCCCC" stroke-miterlimit="10" width="0.003" height="0.003"/>
				</g>
				<g>
					<polygon fill="#FFFFFF" stroke="#CCCCCC" stroke-miterlimit="10" points="279.319,297.775 271.687,298.31 271.687,298.314 
						271.658,298.315 271.658,298.317 279.35,297.779 279.35,297.779 279.32,297.781 					"/>
				</g>
				<g>
					<rect x="271.658" y="298.311" fill="#FFFFFF" stroke="#CCCCCC" stroke-miterlimit="10" width="0.027" height="0.003"/>
				</g>
				<g>
					<polygon fill="#FFFFFF" stroke="#CCCCCC" stroke-miterlimit="10" points="279.35,297.774 281.796,297.603 281.797,297.606 
						286.805,297.256 286.805,297.256 286.841,297.255 284.987,270.751 277.465,271.276 277.465,271.276 277.494,271.275 					"/>
				</g>
				<g>
					
						<rect x="265.103" y="284.493" transform="matrix(0.0698 0.9976 -0.9976 0.0698 542.7708 -13.0554)" fill="#FFFFFF" stroke="#CCCCCC" stroke-miterlimit="10" width="26.566" height="0.028"/>
				</g>
				<g>
					<polygon fill="#FFFFFF" stroke="#CCCCCC" stroke-miterlimit="10" points="281.797,297.606 281.796,297.603 279.35,297.774 
						279.35,297.779 281.781,297.608 281.781,297.608 					"/>
				</g>
				<g>
					<rect x="279.32" y="297.774" fill="#FFFFFF" stroke="#CCCCCC" stroke-miterlimit="10" width="0.029" height="0.006"/>
				</g>
				<g>
					
						<rect x="429.976" y="297.455" transform="matrix(-0.0701 -0.9975 0.9975 -0.0701 165.6531 758.5863)" fill="#FFFFFF" stroke="#CCCCCC" stroke-miterlimit="10" width="12.824" height="9.262"/>
				</g>
				<g>
					
						<rect x="437.592" y="298.539" transform="matrix(-0.0698 -0.9976 0.9976 -0.0698 174.2017 765.5233)" fill="#FFFFFF" stroke="#CCCCCC" stroke-miterlimit="10" width="12.823" height="6.012"/>
				</g>
				<g>
					<polygon fill="#FFFFFF" stroke="#CCCCCC" stroke-miterlimit="10" points="477.866,305.603 484.024,305.172 483.129,292.381 
						446.553,294.935 446.553,294.935 446.563,294.935 447.461,307.731 447.449,307.731 447.449,307.732 471.974,306.014 					"/>
				</g>
				<g>
					<rect x="447.001" y="294.92" fill="#FFFFFF" stroke="#CCCCCC" stroke-miterlimit="10" width="0.01" height="12.827"/>
				</g>
				<g>
					<polygon fill="#FFFFFF" stroke="#CCCCCC" stroke-miterlimit="10" points="484.035,305.172 484.024,305.172 484.024,305.173 
						502.186,303.907 501.283,291.113 483.129,292.381 483.129,292.381 483.143,292.381 					"/>
				</g>
				<g>
					
						<rect x="477.171" y="298.769" transform="matrix(0.0697 0.9976 -0.9976 0.0697 747.9318 -204.4523)" fill="#FFFFFF" stroke="#CCCCCC" stroke-miterlimit="10" width="12.822" height="0.014"/>
				</g>
				<g>
					
						<rect x="512.601" y="268.432" transform="matrix(0.9976 -0.0697 0.0697 0.9976 -17.9219 36.8383)" fill="#FFFFFF" stroke="#CCCCCC" stroke-miterlimit="10" width="12.354" height="13.467"/>
				</g>
				<g>
					
						<rect x="588.128" y="264.643" transform="matrix(0.0695 0.9976 -0.9976 0.0695 822.6707 -342.3591)" fill="#FFFFFF" stroke="#CCCCCC" stroke-miterlimit="10" width="13.468" height="10.366"/>
				</g>
				<g>
					<polygon fill="#FFFFFF" stroke="#CCCCCC" stroke-miterlimit="10" points="384.682,308.33 384.712,308.328 384.712,308.325 
						369.547,309.385 370.181,318.432 385.361,318.04 					"/>
				</g>
				<g>
					<polygon fill="#FFFFFF" stroke="#CCCCCC" stroke-miterlimit="10" points="454.028,347.23 443.169,347.587 444.331,364.198 
						455.198,363.804 454.596,355.179 					"/>
				</g>
				<g>
					<polygon fill="#FFFFFF" stroke="#CCCCCC" stroke-miterlimit="10" points="454.036,347.208 454.596,355.179 455.211,363.804 
						455.198,363.804 455.2,363.816 466.504,363.393 465.314,346.825 					"/>
				</g>
				<g>
					<polygon fill="#FFFFFF" stroke="#CCCCCC" stroke-miterlimit="10" points="454.596,355.179 455.198,363.804 455.211,363.804 
											"/>
				</g>
				<g>
					<polygon fill="#FFFFFF" stroke="#CCCCCC" stroke-miterlimit="10" points="389.374,331.79 390.611,349.512 403.805,349.058 
						402.514,331.479 					"/>
				</g>
				<g>
					<polygon fill="#FFFFFF" stroke="#CCCCCC" stroke-miterlimit="10" points="402.604,331.497 403.828,349.037 416.141,348.637 
						414.867,331.242 					"/>
				</g>
				<g>
					<polygon fill="#FFFFFF" stroke="#CCCCCC" stroke-miterlimit="10" points="415.018,331.259 416.231,348.617 429.674,348.127 
						428.409,330.919 					"/>
				</g>
				<g>
					<polygon fill="#FFFFFF" stroke="#CCCCCC" stroke-miterlimit="10" points="385.361,318.04 385.363,318.063 396.102,317.796 
						396.1,317.783 396.07,317.784 395.356,307.585 384.712,308.328 385.391,318.04 					"/>
				</g>
				<g>
					<rect x="385.022" y="308.315" fill="#FFFFFF" stroke="#CCCCCC" stroke-miterlimit="10" width="0.029" height="9.736"/>
				</g>
				<g>
					<polygon fill="#FFFFFF" stroke="#CCCCCC" stroke-miterlimit="10" points="396.1,317.783 421.948,317.028 420.568,296.896 
						394.727,298.563 395.356,307.585 395.387,307.583 					"/>
				</g>
				<g>
					
						<rect x="390.612" y="312.667" transform="matrix(0.0697 0.9976 -0.9976 0.0697 680.0816 -103.863)" fill="#FFFFFF" stroke="#CCCCCC" stroke-miterlimit="10" width="10.227" height="0.03"/>
				</g>
				<g>
					<polygon fill="#FFFFFF" stroke="#CCCCCC" stroke-miterlimit="10" points="459.119,329.964 460.307,346.885 473.146,346.577 
						471.962,329.679 					"/>
				</g>
				<g>
					<polygon fill="#FFFFFF" stroke="#CCCCCC" stroke-miterlimit="10" points="471.974,329.689 473.155,346.577 485.284,346.313 
						484.105,329.464 					"/>
				</g>
				<g>
					<polygon fill="#FFFFFF" stroke="#CCCCCC" stroke-miterlimit="10" points="491.888,329.31 493.065,346.117 504.895,345.647 
						503.904,328.848 					"/>
				</g>
				<g>
					<polygon fill="#FFFFFF" stroke="#CCCCCC" stroke-miterlimit="10" points="287.379,305.46 286.805,297.256 281.797,297.606 
						283.641,323.981 297.775,322.989 296.506,304.817 					"/>
				</g>
				<g>
					<polygon fill="#FFFFFF" stroke="#CCCCCC" stroke-miterlimit="10" points="281.781,297.608 283.641,323.981 281.797,297.606 
											"/>
				</g>
				<g>
					<rect x="284.301" y="294.922" fill="#FFFFFF" stroke="#CCCCCC" stroke-miterlimit="10" width="0" height="5.02"/>
				</g>
				<g>
					<rect x="281.789" y="297.599" fill="#FFFFFF" stroke="#CCCCCC" stroke-miterlimit="10" width="0" height="0.016"/>
				</g>
				<g>
					<polygon fill="#FFFFFF" stroke="#CCCCCC" stroke-miterlimit="10" points="447.449,307.732 448.046,316.652 472.68,316.096 
						471.974,306.015 					"/>
				</g>
				<g>
					<polygon fill="#FFFFFF" stroke="#CCCCCC" stroke-miterlimit="10" points="471.974,306.014 447.449,307.732 471.974,306.015 
											"/>
				</g>
				<g>
					<polygon fill="#FFFFFF" stroke="#CCCCCC" stroke-miterlimit="10" points="513.316,289.787 514.151,301.78 532.732,300.48 
						531.895,288.485 					"/>
				</g>
				<g>
					<polygon fill="#FFFFFF" stroke="#CCCCCC" stroke-miterlimit="10" points="604.509,295.463 611.295,294.989 619.52,294.415 
						619.514,294.344 617.813,294.464 619.514,294.344 618.85,284.928 618.678,282.42 603.668,283.469 587.152,284.624 
						587.991,296.618 594.398,296.17 					"/>
				</g>
				<g>
					<polygon fill="#FFFFFF" stroke="#CCCCCC" stroke-miterlimit="10" points="558.857,298.652 554.649,298.948 555.702,314.016 
						568.825,313.095 567.775,298.03 					"/>
				</g>
				<g>
					<polygon fill="#FFFFFF" stroke="#CCCCCC" stroke-miterlimit="10" points="587.991,296.618 580.836,297.117 581.889,312.183 
						595.452,311.234 594.398,296.17 					"/>
				</g>
				<g>
					<polygon fill="#FFFFFF" stroke="#CCCCCC" stroke-miterlimit="10" points="713.174,269.542 712.236,256.141 702.525,256.824 
						703.461,270.222 					"/>
				</g>
				<g>
					<polygon fill="#FFFFFF" stroke="#CCCCCC" stroke-miterlimit="10" points="725.918,290.947 730.652,290.615 736.909,290.178 
						736.215,280.261 725.051,278.606 721.342,278.056 716.902,278.368 717.82,291.512 					"/>
				</g>
				<g>
					<polygon fill="#FFFFFF" stroke="#CCCCCC" stroke-miterlimit="10" points="759.99,302.527 758.836,286.037 737.655,287.513 
						738.803,304.011 					"/>
				</g>
				<g>
					<polygon fill="#FFFFFF" stroke="#CCCCCC" stroke-miterlimit="10" points="725.918,290.947 717.82,291.512 717.233,291.554 
						718.208,305.451 737.884,304.079 736.909,290.178 730.652,290.615 					"/>
				</g>
				<g>
					<polygon fill="#FFFFFF" stroke="#CCCCCC" stroke-miterlimit="10" points="708.913,306.1 707.943,292.204 694.043,293.176 
						692.704,293.269 693.678,307.168 					"/>
				</g>
				<g>
					
						<rect x="704.964" y="316.104" transform="matrix(-0.0695 -0.9976 0.9976 -0.0695 441.1587 1052.1311)" fill="#FFFFFF" stroke="#CCCCCC" stroke-miterlimit="10" width="12.585" height="8.44"/>
				</g>
				<g>
					<polygon fill="#FFFFFF" stroke="#CCCCCC" stroke-miterlimit="10" points="697.926,314.949 687.116,315.705 688.001,328.258 
						698.801,327.506 707.484,326.896 706.609,314.342 					"/>
				</g>
				<g>
					<polygon fill="#FFFFFF" stroke="#CCCCCC" stroke-miterlimit="10" points="744.637,311.07 744.688,311.739 738.364,312.115 
						738.364,312.121 721.866,313.274 715.025,313.753 715.903,326.307 722.746,325.831 739.321,324.672 738.847,317.806 
						738.842,317.74 745.126,317.368 745.37,320.884 749.889,320.569 750.146,324.25 751.737,324.142 761.453,323.459 
						760.456,309.963 					"/>
				</g>
				<g>
					<polygon fill="#FFFFFF" stroke="#CCCCCC" stroke-miterlimit="10" points="558.714,339.656 558.651,338.736 557.648,324.418 
						549.025,325.023 549.359,329.796 550.693,348.88 560.908,348.168 560.305,339.547 					"/>
				</g>
				<g>
					
						<rect x="597.233" y="326.629" transform="matrix(-0.0697 -0.9976 0.9976 -0.0697 319.3439 959.7021)" fill="#FFFFFF" stroke="#CCCCCC" stroke-miterlimit="10" width="19.889" height="8.625"/>
				</g>
				<g>
					
						<rect x="582.223" y="321.257" transform="matrix(-0.0698 -0.9976 0.9976 -0.0698 302.3046 945.8766)" fill="#FFFFFF" stroke="#CCCCCC" stroke-miterlimit="10" width="19.889" height="21.463"/>
				</g>
				
					<rect x="435.739" y="267.144" transform="matrix(0.0697 0.9976 -0.9976 0.0697 688.0192 -194.2233)" fill="#FFFFFF" stroke="#CCCCCC" stroke-miterlimit="10" width="24.81" height="9.263"/>
				<g>
					<polygon fill="#FFFFFF" stroke="#CCCCCC" stroke-miterlimit="10" points="287.313,242.74 285.947,223.184 269.713,224.525 
						257.611,225.647 258.943,244.721 271.065,243.875 					"/>
				</g>
				<g>
					<polygon fill="#FFFFFF" stroke="#CCCCCC" stroke-miterlimit="10" points="802.688,315.782 802.738,316.496 799.807,316.699 
						788.757,317.469 790.127,337.063 801.096,335.182 809.536,333.723 808.521,319.177 808.257,315.394 					"/>
				</g>
				<g>
					<polygon fill="#FFFFFF" stroke="#CCCCCC" stroke-miterlimit="10" points="788.694,298.55 788.065,289.547 782.37,289.944 
						773.122,290.592 773.752,299.594 774.163,305.534 789.111,304.492 					"/>
				</g>
				<g>
					
						<rect x="140.663" y="288.486" transform="matrix(-0.0698 -0.9976 0.9976 -0.0698 -127.8907 466.4566)" fill="#FFFFFF" stroke="#CCCCCC" stroke-miterlimit="10" width="25.746" height="8.741"/>
				</g>
				<g>
					<rect x="157.889" y="279.672" fill="#FFFFFF" stroke="#CCCCCC" stroke-miterlimit="10" width="0.017" height="25.741"/>
				</g>
				<g>
					<polygon fill="#FFFFFF" stroke="#CCCCCC" stroke-miterlimit="10" points="271.643,298.319 271.645,298.339 261.478,299.049 
						261.593,300.692 263.319,325.4 273.503,324.687 271.656,298.317 					"/>
				</g>
				<g>
					<polygon fill="#FFFFFF" stroke="#CCCCCC" stroke-miterlimit="10" points="271.656,298.317 273.503,324.687 271.658,298.317 
											"/>
				</g>
				<g>
					
						<rect x="598.268" y="264.261" transform="matrix(0.0695 0.9976 -0.9976 0.0695 831.434 -353.1003)" fill="#FFFFFF" stroke="#CCCCCC" stroke-miterlimit="10" width="13.468" height="9.784"/>
				</g>
				<g>
					<polygon fill="#FFFFFF" stroke="#CCCCCC" stroke-miterlimit="10" points="371.135,332.078 371.715,340.363 389.91,340.008 
						389.303,331.812 					"/>
				</g>
				<g>
					<polygon fill="#FFFFFF" stroke="#CCCCCC" stroke-miterlimit="10" points="477.866,305.603 471.974,306.015 472.68,316.096 
						488.971,315.791 488.206,304.882 					"/>
				</g>
				<g>
					<polygon fill="#FFFFFF" stroke="#CCCCCC" stroke-miterlimit="10" points="471.974,306.015 477.866,305.603 471.974,306.014 
											"/>
				</g>
				<g>
					<polygon fill="#FFFFFF" stroke="#CCCCCC" stroke-miterlimit="10" points="636.866,339.514 627.197,340.188 627.2,340.245 
						617.591,340.912 619.047,362.37 628.676,361.092 628.668,361.006 638.281,359.728 					"/>
				</g>
				<g>
					<polygon fill="#FFFFFF" stroke="#CCCCCC" stroke-miterlimit="10" points="740.299,325.358 719.115,326.839 720.581,347.84 
						741.656,344.785 740.305,325.447 					"/>
				</g>
				<g>
					<polygon fill="#FFFFFF" stroke="#CCCCCC" stroke-miterlimit="10" points="823.831,309.507 823.725,309.513 818.146,302.804 
						808.636,303.471 808.712,304.601 809.129,310.539 807.923,310.623 808.257,315.394 808.258,315.394 808.521,319.177 
						808.568,319.83 824.854,318.694 820.848,331.801 828.023,326.749 830.764,317.603 					"/>
				</g>
				<g>
					<polygon fill="#FFFFFF" stroke="#CCCCCC" stroke-miterlimit="10" points="808.257,315.394 808.521,319.177 808.258,315.394 
											"/>
				</g>
				<g>
					<g>
						<polygon fill="#FFFFFF" stroke="#CCCCCC" stroke-miterlimit="10" points="604.509,295.463 594.398,296.17 595.452,311.234 
							610.287,310.197 609.396,295.123 						"/>
					</g>
					<g>
						<polygon fill="#FFFFFF" stroke="#CCCCCC" stroke-miterlimit="10" points="642.561,292.736 619.514,294.344 619.52,294.415 
							611.295,294.989 609.396,295.123 610.287,310.197 612.348,310.053 627.036,309.027 631.115,308.742 642.784,295.938 						"/>
					</g>
				</g>
			</g>
		</g>
		
			<rect x="285.16" y="337.549" transform="matrix(0.9975 -0.0701 0.0701 0.9975 -23.5038 21.1524)" fill="#FFFFFF" stroke="#CCCCCC" stroke-miterlimit="10" width="9.284" height="16.209"/>
	</g>
	<g id="food">
		<polygon fill="#FFFFFF" stroke="#CCCCCC" stroke-miterlimit="10" points="42.955,241.848 44.211,259.807 53.307,259.102 
			52.052,241.143 		"/>
		
			<rect x="389.57" y="263.146" transform="matrix(0.9976 -0.0698 0.0698 0.9976 -18.2603 28.1682)" fill="#FFFFFF" stroke="#CCCCCC" stroke-miterlimit="10" width="9.268" height="24.809"/>
		
			<rect x="452.815" y="258.816" transform="matrix(0.9976 -0.0697 0.0697 0.9976 -17.7989 32.4548)" fill="#FFFFFF" stroke="#CCCCCC" stroke-miterlimit="10" width="6.486" height="24.807"/>
		
			<rect x="459.286" y="258.424" transform="matrix(0.9976 -0.0698 0.0698 0.9976 -17.7767 32.9217)" fill="#FFFFFF" stroke="#CCCCCC" stroke-miterlimit="10" width="5.806" height="24.808"/>
		<polygon fill="#FFFFFF" stroke="#CCCCCC" stroke-miterlimit="10" points="477.493,282.158 465.93,282.964 464.199,258.217 
			475.762,257.412 		"/>
		
			<rect x="511.641" y="254.459" transform="matrix(0.9976 -0.0697 0.0697 0.9976 -16.9704 36.7742)" fill="#FFFFFF" stroke="#CCCCCC" stroke-miterlimit="10" width="13.164" height="13.982"/>
		
			<rect x="524.946" y="267.572" transform="matrix(0.9976 -0.0698 0.0698 0.9976 -17.8622 37.7142)" fill="#FFFFFF" stroke="#CCCCCC" stroke-miterlimit="10" width="10.949" height="13.465"/>
		
			<rect x="535.836" y="266.752" transform="matrix(0.9976 -0.0696 0.0696 0.9976 -17.7291 38.4862)" fill="#FFFFFF" stroke="#CCCCCC" stroke-miterlimit="10" width="14.414" height="13.466"/>
		
			<rect x="524.749" y="253.565" transform="matrix(0.9976 -0.0698 0.0698 0.9976 -16.8903 37.6923)" fill="#FFFFFF" stroke="#CCCCCC" stroke-miterlimit="10" width="12.411" height="13.981"/>
		
			<rect x="537.094" y="252.716" transform="matrix(0.9976 -0.0699 0.0699 0.9976 -16.8157 38.5818)" fill="#FFFFFF" stroke="#CCCCCC" stroke-miterlimit="10" width="12.204" height="13.978"/>
		
			<rect x="555.21" y="251.664" transform="matrix(0.9976 -0.0698 0.0698 0.9976 -16.6875 39.5788)" fill="#FFFFFF" stroke="#CCCCCC" stroke-miterlimit="10" width="5.948" height="13.978"/>
		
			<rect x="549.28" y="252.079" transform="matrix(0.9976 -0.0695 0.0695 0.9976 -16.6614 38.9861)" fill="#FFFFFF" stroke="#CCCCCC" stroke-miterlimit="10" width="5.947" height="13.977"/>
		
			<rect x="561.118" y="250.891" transform="matrix(0.9976 -0.0696 0.0696 0.9976 -16.5576 40.2547)" fill="#FFFFFF" stroke="#CCCCCC" stroke-miterlimit="10" width="17.255" height="13.979"/>
		
			<rect x="589.943" y="249.035" transform="matrix(0.9976 -0.0699 0.0699 0.9976 -16.4373 42.2645)" fill="#FFFFFF" stroke="#CCCCCC" stroke-miterlimit="10" width="11.625" height="13.98"/>
		<polygon fill="#FFFFFF" stroke="#CCCCCC" stroke-miterlimit="10" points="610.307,275.515 609.37,262.081 627.483,260.815 
			628.305,272.529 618.6,274.936 		"/>
		<polygon fill="#FFFFFF" stroke="#CCCCCC" stroke-miterlimit="10" points="692.89,257.5 693.833,270.894 703.461,270.222 
			702.525,256.824 		"/>
		
			<rect x="691.691" y="243.481" transform="matrix(0.0697 0.9976 -0.9976 0.0697 898.6356 -464.5577)" fill="#FFFFFF" stroke="#CCCCCC" stroke-miterlimit="10" width="13.397" height="12.083"/>
		<polygon fill="#FFFFFF" stroke="#CCCCCC" stroke-miterlimit="10" points="714.014,255.146 713.086,241.783 703.952,242.421 
			704.887,255.783 		"/>
		<polygon fill="#FFFFFF" stroke="#CCCCCC" stroke-miterlimit="10" points="733.847,240.332 729.365,240.644 724.885,240.958 
			725.855,254.771 730.329,254.46 734.814,254.144 		"/>
		<polygon fill="#FFFFFF" stroke="#CCCCCC" stroke-miterlimit="10" points="707.024,279.056 693.122,280.03 684.665,280.622 
			685.585,293.767 692.704,293.269 694.043,293.176 707.943,292.204 		"/>
		<polygon fill="#FFFFFF" stroke="#CCCCCC" stroke-miterlimit="10" points="559.316,205.084 560.572,223.062 562.92,222.896 
			562.961,223.463 572.855,222.769 571.555,204.226 		"/>
		<polygon fill="#FFFFFF" stroke="#CCCCCC" stroke-miterlimit="10" points="560.572,223.062 559.316,205.084 558.73,205.125 
			560.029,223.67 562.961,223.463 562.92,222.896 		"/>
		
			<rect x="551.407" y="188.121" transform="matrix(0.0698 0.9976 -0.9976 0.0698 715.7683 -379.1081)" fill="#FFFFFF" stroke="#CCCCCC" stroke-miterlimit="10" width="19.516" height="12.255"/>
		<polygon fill="#FFFFFF" stroke="#CCCCCC" stroke-miterlimit="10" points="545.465,206.053 545.468,206.137 546.049,224.643 
			560.029,223.67 558.73,205.125 		"/>
		
			<rect x="591.376" y="185.667" transform="matrix(0.0696 0.9976 -0.9976 0.0696 750.2914 -421.5416)" fill="#FFFFFF" stroke="#CCCCCC" stroke-miterlimit="10" width="19.517" height="11.587"/>
		
			<rect x="563.591" y="187.309" transform="matrix(0.0697 0.9976 -0.9976 0.0697 726.3049 -392.0393)" fill="#FFFFFF" stroke="#CCCCCC" stroke-miterlimit="10" width="19.514" height="12.174"/>
		
			<rect x="603.186" y="184.592" transform="matrix(0.0697 0.9976 -0.9976 0.0697 760.3885 -434.1064)" fill="#FFFFFF" stroke="#CCCCCC" stroke-miterlimit="10" width="19.515" height="12.086"/>
		
			<rect x="577.647" y="184.446" transform="matrix(0.0698 0.9976 -0.9976 0.0698 738.3777 -406.976)" fill="#FFFFFF" stroke="#CCCCCC" stroke-miterlimit="10" width="19.514" height="15.948"/>
		
			<rect x="566.585" y="209.556" transform="matrix(-0.07 -0.9975 0.9975 -0.07 403.4923 802.6389)" fill="#FFFFFF" stroke="#CCCCCC" stroke-miterlimit="10" width="18.588" height="7.37"/>
		
			<rect x="577.487" y="205.201" transform="matrix(-0.0699 -0.9976 0.9976 -0.0699 415.8238 812.6636)" fill="#FFFFFF" stroke="#CCCCCC" stroke-miterlimit="10" width="18.591" height="14.541"/>
		
			<rect x="631.667" y="199.871" transform="matrix(-0.9975 0.07 -0.07 -0.9975 1281.7053 373.4304)" fill="#FFFFFF" stroke="#CCCCCC" stroke-miterlimit="10" width="5.289" height="18.587"/>
		
			<rect x="617.495" y="181.296" transform="matrix(-0.0697 -0.9976 0.9976 -0.0697 481.811 828.5717)" fill="#FFFFFF" stroke="#CCCCCC" stroke-miterlimit="10" width="19.515" height="16.662"/>
		
			<rect x="590.236" y="206.069" transform="matrix(-0.0697 -0.9976 0.9976 -0.0697 430.2621 824.4009)" fill="#FFFFFF" stroke="#CCCCCC" stroke-miterlimit="10" width="18.588" height="11.021"/>
		<polygon fill="#FFFFFF" stroke="#CCCCCC" stroke-miterlimit="10" points="604.406,201.931 605.705,220.472 615.055,219.82 
			613.762,201.276 		"/>
		
			<rect x="613.716" y="201.28" transform="matrix(-0.0696 -0.9976 0.9976 -0.0696 456.9469 846.0496)" fill="#FFFFFF" stroke="#CCCCCC" stroke-miterlimit="10" width="18.59" height="17.314"/>
		
			<rect x="637.708" y="204.029" transform="matrix(-0.0697 -0.9976 0.9976 -0.0697 484.3412 868.2154)" fill="#FFFFFF" stroke="#CCCCCC" stroke-miterlimit="10" width="18.591" height="8.48"/>
		
			<rect x="646.216" y="203.421" transform="matrix(-0.0698 -0.9976 0.9976 -0.0698 494.1167 876.0701)" fill="#FFFFFF" stroke="#CCCCCC" stroke-miterlimit="10" width="18.592" height="8.48"/>
		<polygon fill="#FFFFFF" stroke="#CCCCCC" stroke-miterlimit="10" points="689.87,195.026 688.492,175.308 674.596,176.279 
			675.962,195.876 674.596,176.279 673.758,176.339 675.139,196.059 		"/>
		
			<rect x="659.754" y="181.743" transform="matrix(0.0698 0.9976 -0.9976 0.0698 808.9775 -494.4985)" fill="#FFFFFF" stroke="#CCCCCC" stroke-miterlimit="10" width="19.772" height="9.566"/>
		
			<rect x="709.051" y="198.739" transform="matrix(-0.0697 -0.9976 0.9976 -0.0697 565.6041 934.0317)" fill="#FFFFFF" stroke="#CCCCCC" stroke-miterlimit="10" width="18.591" height="9.065"/>
		<polygon fill="#FFFFFF" stroke="#CCCCCC" stroke-miterlimit="10" points="728.247,193.271 736.547,203.754 730.732,211.731 
			723.551,212.232 722.258,193.689 		"/>
		<polygon fill="#FFFFFF" stroke="#CCCCCC" stroke-miterlimit="10" points="659.27,198.094 660.556,216.636 691.234,214.495 
			689.932,195.947 		"/>
		
			<rect x="698.457" y="197.894" transform="matrix(-0.0696 -0.9976 0.9976 -0.0696 553.4912 924.2565)" fill="#FFFFFF" stroke="#CCCCCC" stroke-miterlimit="10" width="18.589" height="12.252"/>
		
			<rect x="596.591" y="160.803" transform="matrix(-0.0698 -0.9976 0.9976 -0.0698 479.4366 777.7517)" fill="#FFFFFF" stroke="#CCCCCC" stroke-miterlimit="10" width="11.522" height="9.063"/>
		
			<rect x="581.676" y="163.265" transform="matrix(-0.0698 -0.9976 0.9976 -0.0698 462.4473 763.9897)" fill="#FFFFFF" stroke="#CCCCCC" stroke-miterlimit="10" width="11.52" height="6.225"/>
		
			<rect x="588.376" y="162.242" transform="matrix(-0.0697 -0.9976 0.9976 -0.0697 470.084 770.1579)" fill="#FFFFFF" stroke="#CCCCCC" stroke-miterlimit="10" width="11.523" height="7.309"/>
		
			<rect x="606.608" y="159.127" transform="matrix(-0.0698 -0.9976 0.9976 -0.0698 490.8552 786.9979)" fill="#FFFFFF" stroke="#CCCCCC" stroke-miterlimit="10" width="11.52" height="11.018"/>
		<polygon fill="#FFFFFF" stroke="#CCCCCC" stroke-miterlimit="10" points="679.528,150.692 675.303,153.639 672.549,154.463 
			673.365,166.142 685.46,165.298 685.086,159.96 		"/>
		<polygon fill="#FFFFFF" stroke="#CCCCCC" stroke-miterlimit="10" points="660.962,157.924 654.408,158.809 655.014,167.427 
			663.092,166.862 662.435,157.485 663.092,166.862 673.365,166.142 672.549,154.463 		"/>
		<polygon fill="#FFFFFF" stroke="#CCCCCC" stroke-miterlimit="10" points="645.273,160.045 645.835,168.069 655.014,167.427 
			654.408,158.809 		"/>
		<polygon fill="#FFFFFF" stroke="#CCCCCC" stroke-miterlimit="10" points="645.273,160.045 643.521,160.28 642.575,156.75 
			639.563,156.962 630.901,157.565 617.461,158.504 618.266,169.998 631.701,169.057 640.365,168.452 645.835,168.069 		"/>
		<polygon fill="#FFFFFF" stroke="#CCCCCC" stroke-miterlimit="10" points="555.422,151.679 554.145,174.479 564.45,173.76 
			565.943,151.811 		"/>
		<polygon fill="#FFFFFF" stroke="#CCCCCC" stroke-miterlimit="10" points="546.66,151.571 545.23,175.106 554.145,174.479 
			555.422,151.679 		"/>
		<polygon fill="#FFFFFF" stroke="#CCCCCC" stroke-miterlimit="10" points="575.794,151.933 573.186,151.899 565.943,151.811 
			564.45,173.76 571.939,173.237 577.26,172.864 		"/>
		<polygon fill="#FFFFFF" stroke="#CCCCCC" stroke-miterlimit="10" points="688.492,175.308 712.609,173.624 719.674,182.596 
			708.995,183.342 709.714,193.64 689.87,195.026 		"/>
		<polygon fill="#FFFFFF" stroke="#CCCCCC" stroke-miterlimit="10" points="727.557,192.394 719.674,182.596 708.995,183.342 
			709.714,193.64 		"/>
		<polygon fill="#FFFFFF" stroke="#CCCCCC" stroke-miterlimit="10" points="778.133,275.054 778.426,279.195 781.605,278.971 
			781.948,283.918 801.408,282.555 794.204,273.891 778.131,275.014 		"/>
		<polygon fill="#FFFFFF" stroke="#CCCCCC" stroke-miterlimit="10" points="778.131,275.014 794.204,273.891 788.05,266.493 
			777.588,267.223 		"/>
		<polygon fill="#FFFFFF" stroke="#CCCCCC" stroke-miterlimit="10" points="801.408,282.555 781.948,283.918 782.37,289.944 
			788.065,289.547 806.174,288.279 		"/>
		<polygon fill="#FFFFFF" stroke="#CCCCCC" stroke-miterlimit="10" points="484.973,256.767 497.651,255.88 498.564,256.71 
			498.715,258.88 499.213,258.842 500.079,271.299 486.057,272.277 		"/>
		<polygon fill="#FFFFFF" stroke="#CCCCCC" stroke-miterlimit="10" points="693.678,307.168 692.704,293.269 685.585,293.767 
			684.665,280.622 667.335,281.834 656.793,294.772 657.348,302.724 676.86,301.361 676.86,301.361 677.35,308.306 		"/>
		<polygon fill="#FFFFFF" stroke="#CCCCCC" stroke-miterlimit="10" points="679.667,258.466 679.376,254.279 665.059,255.28 
			666.288,272.822 693.833,270.894 692.895,257.541 		"/>
		<polygon fill="#FFFFFF" stroke="#CCCCCC" stroke-miterlimit="10" points="500.079,271.299 486.057,272.277 486.697,281.516 
			500.729,280.532 		"/>
		<polygon fill="#FFFFFF" stroke="#CCCCCC" stroke-miterlimit="10" points="601.066,248.632 602.036,262.555 599.608,262.726 
			599.611,262.761 609.37,262.081 617.656,261.502 616.682,247.542 		"/>
		<polygon fill="#FFFFFF" stroke="#CCCCCC" stroke-miterlimit="10" points="618.678,282.42 641.729,280.804 641.902,283.315 
			618.85,284.928 		"/>
		<polygon fill="#FFFFFF" stroke="#CCCCCC" stroke-miterlimit="10" points="664.215,177.006 654.167,177.711 655.534,197.303 
			655.545,197.428 665.595,196.726 		"/>
		<polygon fill="#FFFFFF" stroke="#CCCCCC" stroke-miterlimit="10" points="679.424,244.136 680.074,253.429 680.359,257.5 
			692.831,256.627 691.899,243.264 		"/>
		<polygon fill="#FFFFFF" stroke="#CCCCCC" stroke-miterlimit="10" points="665.059,255.28 654.081,256.047 654.997,269.123 
			666.288,272.822 		"/>
		<polygon fill="#FFFFFF" stroke="#CCCCCC" stroke-miterlimit="10" points="781.605,278.971 778.426,279.195 778.133,275.054 
			778.131,275.014 777.588,267.223 788.05,266.493 777.531,253.851 770.803,257.432 773.122,290.592 782.37,289.944 
			781.948,283.918 		"/>
		<polygon fill="#FFFFFF" stroke="#CCCCCC" stroke-miterlimit="10" points="425.395,260.933 407.182,262.208 408.912,286.953 
			427.131,285.678 427.131,285.678 427.122,285.678 		"/>
		<polygon fill="#FFFFFF" stroke="#CCCCCC" stroke-miterlimit="10" points="434.636,260.29 425.395,260.933 425.395,260.933 
			427.122,285.678 427.131,285.678 436.364,285.037 		"/>
		<polygon fill="#FFFFFF" stroke="#CCCCCC" stroke-miterlimit="10" points="578.85,264.215 568.928,264.908 569.868,278.344 
			590.211,276.921 589.271,263.486 578.85,264.217 		"/>
		<polygon fill="#FFFFFF" stroke="#CCCCCC" stroke-miterlimit="10" points="589.469,249.461 577.874,250.272 578.85,264.215 
			578.85,264.217 589.271,263.486 590.445,263.405 		"/>
		
			<rect x="615.095" y="249.261" transform="matrix(-0.0696 -0.9976 0.9976 -0.0696 411.8033 892.4502)" fill="#FFFFFF" stroke="#CCCCCC" stroke-miterlimit="10" width="13.977" height="9.851"/>
		<polygon fill="#FFFFFF" stroke="#CCCCCC" stroke-miterlimit="10" points="638.602,246.025 626.512,246.868 627.483,260.815 
			639.574,259.967 		"/>
		<polygon fill="#FFFFFF" stroke="#CCCCCC" stroke-miterlimit="10" points="627.483,260.815 628.305,272.529 640.225,269.298 
			639.574,259.967 		"/>
		
			<rect x="686.777" y="199.287" transform="matrix(-0.0699 -0.9976 0.9976 -0.0699 540.4084 913.5165)" fill="#FFFFFF" stroke="#CCCCCC" stroke-miterlimit="10" width="18.593" height="11.08"/>
		<polygon fill="#FFFFFF" stroke="#CCCCCC" stroke-miterlimit="10" points="676.86,301.361 657.348,302.724 657.551,305.645 
			671.896,304.672 672.168,308.67 677.35,308.306 		"/>
		<polygon fill="#FFFFFF" stroke="#CCCCCC" stroke-miterlimit="10" points="655.534,197.303 654.167,177.711 640.681,178.652 
			642.063,198.373 655.545,197.428 		"/>
		<polygon fill="#FFFFFF" stroke="#CCCCCC" stroke-miterlimit="10" points="618.85,284.928 619.514,294.344 642.561,292.736 
			641.902,283.315 		"/>
		<polygon fill="#FFFFFF" stroke="#CCCCCC" stroke-miterlimit="10" points="126.863,285.342 116.938,285.97 117.167,289.239 
			127.091,288.611 		"/>
	</g>
	<g id="etc">
		<g>
			
				<rect x="653.67" y="245.038" transform="matrix(0.9976 -0.0698 0.0698 0.9976 -15.8013 47.1416)" fill="#FFFFFF" stroke="#CCCCCC" stroke-miterlimit="10" width="26.11" height="9.317"/>
			
				<rect x="735.062" y="239.562" transform="matrix(-0.9976 0.0698 -0.0698 -0.9976 1507.0118 447.8685)" fill="#FFFFFF" stroke="#CCCCCC" stroke-miterlimit="10" width="21.238" height="21.404"/>
			
				<rect x="107.845" y="237.271" transform="matrix(-0.0698 -0.9976 0.9976 -0.0698 -120.0193 379.3304)" fill="#FFFFFF" stroke="#CCCCCC" stroke-miterlimit="10" width="18.007" height="16.703"/>
			<polygon fill="#FFFFFF" stroke="#CCCCCC" stroke-miterlimit="10" points="34.797,242.626 36.055,260.584 44.211,259.945 
				42.955,241.986 			"/>
			<polygon fill="#FFFFFF" stroke="#CCCCCC" stroke-miterlimit="10" points="285.947,223.018 287.324,242.736 296.554,242.09 
				295.277,223.837 			"/>
		</g>
	</g>
	<g id="fashion">
		<g>
			<polygon fill="#FFFFFF" stroke="#CCCCCC" stroke-miterlimit="10" points="60.758,295.321 61.41,304.636 70.785,303.981 
				70.137,294.709 			"/>
			<polygon fill="#FFFFFF" stroke="#CCCCCC" stroke-miterlimit="10" points="69.49,285.442 60.113,286.098 60.758,295.321 
				70.137,294.709 			"/>
		</g>
		
			<rect x="61.578" y="303.98" transform="matrix(0.9976 -0.0697 0.0697 0.9976 -21.2165 5.6913)" fill="#FFFFFF" stroke="#CCCCCC" stroke-miterlimit="10" width="18.78" height="5.944"/>
		
			<rect x="62.582" y="317.181" transform="matrix(0.9976 -0.0696 0.0696 0.9976 -22.1667 5.7867)" fill="#FFFFFF" stroke="#CCCCCC" stroke-miterlimit="10" width="18.776" height="7.725"/>
		<g>
			<polygon fill="#FFFFFF" stroke="#CCCCCC" stroke-miterlimit="10" points="69.492,285.442 70.785,303.981 75.44,303.656 
				74.153,285.117 			"/>
			<polygon fill="#FFFFFF" stroke="#CCCCCC" stroke-miterlimit="10" points="78.866,284.789 74.153,285.117 75.44,303.656 
				80.163,303.328 			"/>
		</g>
		<g>
			<polygon fill="#FFFFFF" stroke="#CCCCCC" stroke-miterlimit="10" points="78.909,284.787 80.713,310.561 84.916,310.266 
				82.98,284.5 			"/>
			<polygon fill="#FFFFFF" stroke="#CCCCCC" stroke-miterlimit="10" points="86.907,284.225 82.98,284.5 84.916,310.266 
				88.708,310.004 			"/>
		</g>
		
			<rect x="81.166" y="309.584" transform="matrix(0.9976 -0.0697 0.0697 0.9976 -21.8269 7.3436)" fill="#FFFFFF" stroke="#CCCCCC" stroke-miterlimit="10" width="26.314" height="13.748"/>
		
			<rect x="115.135" y="335.232" transform="matrix(0.9976 -0.0698 0.0698 0.9976 -23.6238 9.1387)" fill="#FFFFFF" stroke="#CCCCCC" stroke-miterlimit="10" width="7.596" height="14.626"/>
		
			<rect x="122.706" y="334.703" transform="matrix(0.9976 -0.0698 0.0698 0.9976 -23.569 9.6693)" fill="#FFFFFF" stroke="#CCCCCC" stroke-miterlimit="10" width="7.679" height="14.628"/>
		
			<rect x="130.358" y="334.184" transform="matrix(0.9976 -0.0693 0.0693 0.9976 -23.3389 10.1115)" fill="#FFFFFF" stroke="#CCCCCC" stroke-miterlimit="10" width="7.47" height="14.625"/>
		
			<rect x="137.839" y="333.693" transform="matrix(0.9975 -0.0701 0.0701 0.9975 -23.5678 10.7151)" fill="#FFFFFF" stroke="#CCCCCC" stroke-miterlimit="10" width="5.96" height="14.628"/>
		<path fill="#FFFFFF" stroke="#CCCCCC" stroke-miterlimit="10" d="M160.621,339.258"/>
		<polygon fill="#FFFFFF" stroke="#CCCCCC" stroke-miterlimit="10" points="162.145,332.2 163.166,346.78 166.776,346.528 
			165.985,331.929 		"/>
		<polygon fill="#FFFFFF" stroke="#CCCCCC" stroke-miterlimit="10" points="169.204,331.705 165.985,331.929 166.776,346.528 
			169.995,346.302 		"/>
		<polygon fill="#FFFFFF" stroke="#CCCCCC" stroke-miterlimit="10" points="173.337,346.068 172.318,331.487 169.204,331.705 
			169.995,346.302 		"/>
		
			<rect x="234.117" y="274.005" transform="matrix(0.9976 -0.0697 0.0697 0.9976 -19.0425 17.3208)" fill="#FFFFFF" stroke="#CCCCCC" stroke-miterlimit="10" width="9.178" height="15.115"/>
		
			<rect x="235.031" y="288.482" transform="matrix(0.9976 -0.0697 0.0697 0.9976 -19.9038 18.0067)" fill="#FFFFFF" stroke="#CCCCCC" stroke-miterlimit="10" width="26.088" height="11.464"/>
		
			<rect x="243.283" y="273.472" transform="matrix(0.9975 -0.0703 0.0703 0.9975 -19.1415 18.0031)" fill="#FFFFFF" stroke="#CCCCCC" stroke-miterlimit="10" width="5.989" height="15.112"/>
		
			<rect x="249.253" y="272.886" transform="matrix(0.9976 -0.0693 0.0693 0.9976 -18.8112 18.3152)" fill="#FFFFFF" stroke="#CCCCCC" stroke-miterlimit="10" width="10.942" height="15.109"/>
		
			<rect x="238.689" y="340.753" transform="matrix(0.9976 -0.0695 0.0695 0.9976 -23.649 17.7979)" fill="#FFFFFF" stroke="#CCCCCC" stroke-miterlimit="10" width="10.668" height="16.204"/>
		
			<rect x="249.301" y="339.964" transform="matrix(0.9976 -0.0696 0.0696 0.9976 -23.5996 18.6068)" fill="#FFFFFF" stroke="#CCCCCC" stroke-miterlimit="10" width="11.986" height="16.205"/>
		
			<rect x="261.227" y="339.122" transform="matrix(0.9976 -0.0698 0.0698 0.9976 -23.5928 19.5131)" fill="#FFFFFF" stroke="#CCCCCC" stroke-miterlimit="10" width="12.182" height="16.207"/>
		<polygon fill="#FFFFFF" stroke="#CCCCCC" stroke-miterlimit="10" points="345.232,303.267 346.379,319.633 308.281,322.295 
			307.007,304.084 287.379,305.457 286.805,297.256 323.307,294.708 324.008,304.753 		"/>
		<polygon fill="#FFFFFF" stroke="#CCCCCC" stroke-miterlimit="10" points="367.129,277.595 378.186,264.256 379.442,264.168 
			381.174,288.928 367.984,289.85 		"/>
		
			<rect x="120.872" y="240.017" transform="matrix(-0.0697 -0.9976 0.9976 -0.0697 -105.1972 391.3336)" fill="#FFFFFF" stroke="#CCCCCC" stroke-miterlimit="10" width="18.004" height="9.403"/>
		
			<rect x="144.165" y="237.91" transform="matrix(-0.0698 -0.9976 0.9976 -0.0698 -78.6657 412.8723)" fill="#FFFFFF" stroke="#CCCCCC" stroke-miterlimit="10" width="18.003" height="10.406"/>
		
			<rect x="136.113" y="240.804" transform="matrix(-0.0698 -0.9976 0.9976 -0.0698 -87.8194 405.4303)" fill="#FFFFFF" stroke="#CCCCCC" stroke-miterlimit="10" width="18.004" height="5.71"/>
		
			<rect x="129.41" y="240.262" transform="matrix(-0.0698 -0.9976 0.9976 -0.0698 -95.452 399.239)" fill="#FFFFFF" stroke="#CCCCCC" stroke-miterlimit="10" width="18.004" height="7.721"/>
		
			<rect x="152.606" y="239.231" transform="matrix(-0.0699 -0.9976 0.9976 -0.0699 -69.0093 420.6664)" fill="#FFFFFF" stroke="#CCCCCC" stroke-miterlimit="10" width="18.005" height="6.547"/>
		
			<rect x="81.688" y="242.931" transform="matrix(-0.0698 -0.9976 0.9976 -0.0698 -149.8374 355.2065)" fill="#FFFFFF" stroke="#CCCCCC" stroke-miterlimit="10" width="18.005" height="9.064"/>
		
			<rect x="50.416" y="242.891" transform="matrix(-0.0697 -0.9976 0.9976 -0.0697 -185.4811 326.3209)" fill="#FFFFFF" stroke="#CCCCCC" stroke-miterlimit="10" width="18.004" height="13.513"/>
		
			<rect x="61.632" y="244.364" transform="matrix(-0.0698 -0.9976 0.9976 -0.0698 -172.6827 336.6888)" fill="#FFFFFF" stroke="#CCCCCC" stroke-miterlimit="10" width="18.004" height="8.982"/>
		
			<rect x="71.636" y="242.613" transform="matrix(-0.0698 -0.9976 0.9976 -0.0698 -161.2795 345.9169)" fill="#FFFFFF" stroke="#CCCCCC" stroke-miterlimit="10" width="18.007" height="11.08"/>
		<polygon fill="#FFFFFF" stroke="#CCCCCC" stroke-miterlimit="10" points="324.637,226.402 325.592,240.06 335.742,239.348 
			334.9,227.3 		"/>
		
			<rect x="161.975" y="235.709" transform="matrix(-0.0698 -0.9976 0.9976 -0.0698 -58.3357 429.2798)" fill="#FFFFFF" stroke="#CCCCCC" stroke-miterlimit="10" width="18.006" height="12.257"/>
		<polygon fill="#FFFFFF" stroke="#CCCCCC" stroke-miterlimit="10" points="313.672,225.446 314.746,240.818 325.592,240.06 
			324.637,226.402 		"/>
		
			<rect x="195.35" y="234.941" transform="matrix(-0.0699 -0.9976 0.9976 -0.0699 -20.2955 460.1064)" fill="#FFFFFF" stroke="#CCCCCC" stroke-miterlimit="10" width="18.005" height="9.148"/>
		
			<rect x="175.586" y="233.381" transform="matrix(-0.0698 -0.9976 0.9976 -0.0698 -42.832 441.847)" fill="#FFFFFF" stroke="#CCCCCC" stroke-miterlimit="10" width="18.005" height="15.025"/>
		
			<rect x="186.929" y="236.237" transform="matrix(-0.0698 -0.9976 0.9976 -0.0698 -29.9048 452.3113)" fill="#FFFFFF" stroke="#CCCCCC" stroke-miterlimit="10" width="18.007" height="7.722"/>
		<polygon fill="#FFFFFF" stroke="#CCCCCC" stroke-miterlimit="10" points="39.448,309.382 37.926,287.605 33.769,287.896 
			35.382,309.679 		"/>
		<polygon fill="#FFFFFF" stroke="#CCCCCC" stroke-miterlimit="10" points="35.277,309.75 33.646,287.898 29.144,288.344 
			30.874,310.046 		"/>
		<polygon fill="#FFFFFF" stroke="#CCCCCC" stroke-miterlimit="10" points="20.487,315.548 20.793,319.936 40.091,318.583 
			39.775,314.06 		"/>
		<polygon fill="#FFFFFF" stroke="#CCCCCC" stroke-miterlimit="10" points="20.171,311.169 20.477,315.553 39.775,314.199 
			39.459,309.679 		"/>
		<g>
			<polygon fill="#FFFFFF" stroke="#CCCCCC" stroke-miterlimit="10" points="29.635,295.38 19.255,296.11 19.745,303.118 
				30.125,302.388 			"/>
			<polygon fill="#FFFFFF" stroke="#CCCCCC" stroke-miterlimit="10" points="29.144,288.344 18.764,289.069 19.255,296.11 
				29.635,295.38 			"/>
			
				<rect x="21.374" y="301.382" transform="matrix(-0.0698 -0.9976 0.9976 -0.0698 -278.8737 353.1378)" fill="#FFFFFF" stroke="#CCCCCC" stroke-miterlimit="10" width="7.655" height="10.406"/>
		</g>
		<polygon fill="#FFFFFF" stroke="#CCCCCC" stroke-miterlimit="10" points="235.229,227.718 236.527,246.291 247.016,245.554 
			245.699,226.751 		"/>
		<polygon fill="#FFFFFF" stroke="#CCCCCC" stroke-miterlimit="10" points="208.287,230.218 209.542,248.174 224.848,247.105 
			223.567,228.802 		"/>
		
			<rect x="131.295" y="288.491" transform="matrix(-0.0698 -0.9976 0.9976 -0.0698 -138.5657 457.8122)" fill="#FFFFFF" stroke="#CCCCCC" stroke-miterlimit="10" width="25.745" height="10.04"/>
		<g>
			<polygon fill="#FFFFFF" stroke="#CCCCCC" stroke-miterlimit="10" points="262.039,307.082 262.068,307.078 261.506,299.026 
				235.455,300.849 236.052,309.386 262.079,307.643 			"/>
			<polygon fill="#FFFFFF" stroke="#CCCCCC" stroke-miterlimit="10" points="263.322,325.423 262.079,307.643 236.052,309.386 
				236.76,319.514 244.88,326.729 263.354,325.436 263.35,325.422 			"/>
		</g>
		
			<rect x="201.78" y="305.736" transform="matrix(0.9975 -0.0701 0.0701 0.9975 -21.3129 15.155)" fill="#FFFFFF" stroke="#CCCCCC" stroke-miterlimit="10" width="7.164" height="11.269"/>
		
			<rect x="201.78" y="305.736" transform="matrix(0.9975 -0.0701 0.0701 0.9975 -21.3129 15.155)" fill="#FFFFFF" stroke="#CCCCCC" stroke-miterlimit="10" width="7.164" height="11.269"/>
		<polygon fill="#FFFFFF" stroke="#CCCCCC" stroke-miterlimit="10" points="685.46,165.298 704.485,163.968 688.479,144.388 
			679.528,150.692 685.086,159.96 		"/>
		
			<rect x="303.443" y="336.044" transform="matrix(0.9976 -0.0698 0.0698 0.9976 -23.2712 22.5574)" fill="#FFFFFF" stroke="#CCCCCC" stroke-miterlimit="10" width="15.161" height="16.208"/>
		
			<rect x="273.411" y="338.288" transform="matrix(0.9976 -0.0698 0.0698 0.9976 -23.4946 20.3364)" fill="#FFFFFF" stroke="#CCCCCC" stroke-miterlimit="10" width="11.74" height="16.206"/>
		<polygon fill="#FFFFFF" stroke="#CCCCCC" stroke-miterlimit="10" points="105.155,282.948 93.062,283.796 93.515,290.277 
			105.613,289.489 		"/>
		<polygon fill="#FFFFFF" stroke="#CCCCCC" stroke-miterlimit="10" points="94.863,309.572 106.958,308.724 106.453,301.506 
			94.354,302.293 		"/>
		<polygon fill="#FFFFFF" stroke="#CCCCCC" stroke-miterlimit="10" points="105.613,289.489 93.515,290.277 93.908,295.905 
			106.006,295.118 		"/>
		<polygon fill="#FFFFFF" stroke="#CCCCCC" stroke-miterlimit="10" points="93.908,295.905 94.354,302.293 106.453,301.506 
			106.006,295.118 		"/>
		<polygon fill="#FFFFFF" stroke="#CCCCCC" stroke-miterlimit="10" points="127.091,288.611 117.167,289.239 117.372,292.172 
			127.296,291.545 		"/>
		<polygon fill="#FFFFFF" stroke="#CCCCCC" stroke-miterlimit="10" points="118.452,307.618 118.75,311.881 128.67,311.184 
			128.376,306.991 		"/>
		<polygon fill="#FFFFFF" stroke="#CCCCCC" stroke-miterlimit="10" points="127.296,291.545 117.372,292.172 117.589,295.29 
			127.514,294.662 		"/>
		<polygon fill="#FFFFFF" stroke="#CCCCCC" stroke-miterlimit="10" points="126.616,281.824 116.697,282.52 116.938,285.97 
			126.863,285.342 		"/>
		<polygon fill="#FFFFFF" stroke="#CCCCCC" stroke-miterlimit="10" points="127.514,294.662 117.589,295.29 117.792,298.181 
			127.717,297.553 		"/>
		<polygon fill="#FFFFFF" stroke="#CCCCCC" stroke-miterlimit="10" points="128.163,303.939 118.238,304.567 118.452,307.618 
			128.376,306.991 		"/>
		<polygon fill="#FFFFFF" stroke="#CCCCCC" stroke-miterlimit="10" points="127.935,300.678 118.01,301.306 118.238,304.567 
			128.163,303.939 		"/>
		<polygon fill="#FFFFFF" stroke="#CCCCCC" stroke-miterlimit="10" points="127.717,297.553 117.792,298.181 118.01,301.306 
			127.935,300.678 		"/>
		
			<rect x="201.489" y="296.972" transform="matrix(0.9976 -0.0698 0.0698 0.9976 -20.901 15.5445)" fill="#FFFFFF" stroke="#CCCCCC" stroke-miterlimit="10" width="20.84" height="19.566"/>
		<path fill="#FFFFFF" stroke="#CCCCCC" stroke-miterlimit="10" d="M163.164,303.908"/>
		<path fill="#FFFFFF" stroke="#CCCCCC" stroke-miterlimit="10" d="M164.939,330.527"/>
		<polygon fill="#FFFFFF" stroke="#CCCCCC" stroke-miterlimit="10" points="143.263,333.518 144.284,348.107 149.059,347.777 
			147.945,333.19 		"/>
		<polygon fill="#FFFFFF" stroke="#CCCCCC" stroke-miterlimit="10" points="152.975,332.838 147.945,333.19 149.059,347.777 
			153.996,347.429 		"/>
		
			<rect x="172.792" y="331.273" transform="matrix(0.9976 -0.0694 0.0694 0.9976 -23.0583 13.0098)" fill="#FFFFFF" stroke="#CCCCCC" stroke-miterlimit="10" width="6.083" height="14.617"/>
		<polygon fill="#FFFFFF" stroke="#CCCCCC" stroke-miterlimit="10" points="206.195,336.453 206.704,343.729 224.578,342.48 
			224.069,335.216 		"/>
		<polygon fill="#FFFFFF" stroke="#CCCCCC" stroke-miterlimit="10" points="223.558,327.9 205.685,329.152 206.195,336.453 
			224.069,335.216 		"/>
		<polygon fill="#FFFFFF" stroke="#CCCCCC" stroke-miterlimit="10" points="38.483,295.861 39.052,305.002 49.434,304.271 
			48.869,295.218 		"/>
		<polygon fill="#FFFFFF" stroke="#CCCCCC" stroke-miterlimit="10" points="48.352,286.921 37.972,287.645 38.483,295.861 
			48.869,295.218 		"/>
		<polygon fill="#FFFFFF" stroke="#CCCCCC" stroke-miterlimit="10" points="49.401,304.346 39.021,304.902 39.448,309.984 
			49.825,309.374 		"/>
		<polygon fill="#FFFFFF" stroke="#CCCCCC" stroke-miterlimit="10" points="39.425,309.894 39.775,314.301 50.157,313.571 
			49.815,309.297 		"/>
		<polygon fill="#FFFFFF" stroke="#CCCCCC" stroke-miterlimit="10" points="39.775,314.089 40.125,318.498 50.506,317.767 
			50.165,313.492 		"/>
		<polygon fill="#FFFFFF" stroke="#CCCCCC" stroke-miterlimit="10" points="50.517,317.854 20.793,319.936 21.034,323.371 
			50.746,321.125 		"/>
		<polygon fill="#FFFFFF" stroke="#CCCCCC" stroke-miterlimit="10" points="50.746,321.127 21.035,323.381 21.264,326.651 
			50.976,324.407 		"/>
		<polygon fill="#FFFFFF" stroke="#CCCCCC" stroke-miterlimit="10" points="21.491,329.894 51.214,327.816 50.976,324.407 
			21.264,326.664 		"/>
		<path fill="#FFFFFF" stroke="#CCCCCC" stroke-miterlimit="10" d="M50.746,321.125l-29.712,2.246l0.001,0.011
			c5-0.359,24.847-1.881,29.711-2.255V321.125z"/>
		<polygon fill="#FFFFFF" stroke="#CCCCCC" stroke-miterlimit="10" points="21.496,329.979 22.121,338.895 31.906,338.213 
			31.342,329.291 		"/>
		<polygon fill="#FFFFFF" stroke="#CCCCCC" stroke-miterlimit="10" points="41.422,328.586 31.342,329.291 31.906,338.213 
			41.987,337.507 		"/>
		<polygon fill="#FFFFFF" stroke="#CCCCCC" stroke-miterlimit="10" points="51.842,336.82 51.219,327.897 41.422,328.586 
			41.987,337.507 		"/>
		<polygon fill="#FFFFFF" stroke="#CCCCCC" stroke-miterlimit="10" points="170.8,304.545 160.377,305.271 160.656,309.26 
			171.084,308.604 		"/>
		<polygon fill="#FFFFFF" stroke="#CCCCCC" stroke-miterlimit="10" points="161.413,320.092 171.838,319.363 171.573,315.578 
			161.144,316.233 		"/>
		<polygon fill="#FFFFFF" stroke="#CCCCCC" stroke-miterlimit="10" points="171.084,308.604 160.656,309.26 160.891,312.624 
			171.319,311.968 		"/>
		<polygon fill="#FFFFFF" stroke="#CCCCCC" stroke-miterlimit="10" points="160.891,312.624 161.144,316.233 171.573,315.578 
			171.319,311.968 		"/>
		<polygon fill="#FFFFFF" stroke="#CCCCCC" stroke-miterlimit="10" points="161.475,320.091 160.438,305.269 157.572,305.468 
			158.479,320.298 		"/>
		<polygon fill="#FFFFFF" stroke="#CCCCCC" stroke-miterlimit="10" points="151.397,305.897 152.435,320.719 155.849,320.481 
			154.941,305.65 		"/>
		<polygon fill="#FFFFFF" stroke="#CCCCCC" stroke-miterlimit="10" points="157.572,305.468 154.941,305.65 155.849,320.481 
			158.479,320.298 		"/>
		<polygon fill="#FFFFFF" stroke="#CCCCCC" stroke-miterlimit="10" points="141.726,306.576 142.762,321.396 146.275,321.149 
			145.285,306.326 		"/>
		<polygon fill="#FFFFFF" stroke="#CCCCCC" stroke-miterlimit="10" points="148.302,306.114 145.285,306.326 146.275,321.149 
			149.292,320.94 		"/>
		<polygon fill="#FFFFFF" stroke="#CCCCCC" stroke-miterlimit="10" points="152.432,320.719 151.397,305.897 148.302,306.114 
			149.292,320.94 		"/>
		<polygon fill="#FFFFFF" stroke="#CCCCCC" stroke-miterlimit="10" points="128.638,307.568 129.675,322.386 133.082,322.148 
			131.88,307.342 		"/>
		<polygon fill="#FFFFFF" stroke="#CCCCCC" stroke-miterlimit="10" points="131.88,307.342 133.082,322.148 136.381,321.919 
			135.179,307.11 		"/>
		<polygon fill="#FFFFFF" stroke="#CCCCCC" stroke-miterlimit="10" points="142.923,321.462 141.887,306.64 138.319,306.889 
			139.521,321.698 		"/>
		<polygon fill="#FFFFFF" stroke="#CCCCCC" stroke-miterlimit="10" points="138.319,306.889 135.179,307.11 136.381,321.919 
			139.521,321.698 		"/>
		<polygon fill="#FFFFFF" stroke="#CCCCCC" stroke-miterlimit="10" points="119.667,323.046 129.675,322.386 129.396,318.393 
			119.342,319.006 		"/>
		<polygon fill="#FFFFFF" stroke="#CCCCCC" stroke-miterlimit="10" points="119.066,315.416 119.342,319.006 129.325,318.393 
			129.148,314.864 		"/>
		<polygon fill="#FFFFFF" stroke="#CCCCCC" stroke-miterlimit="10" points="128.807,311.184 118.733,311.685 119.066,315.416 
			129.081,314.864 		"/>
		<g>
			<polygon fill="#FFFFFF" stroke="#CCCCCC" stroke-miterlimit="10" points="93.059,283.796 89.978,284.01 91.902,309.779 
				94.861,309.572 			"/>
			<polygon fill="#FFFFFF" stroke="#CCCCCC" stroke-miterlimit="10" points="86.948,284.221 88.75,310 91.902,309.779 
				89.978,284.01 			"/>
		</g>
		<g>
			<polygon fill="#FFFFFF" stroke="#CCCCCC" stroke-miterlimit="10" points="80.559,309.297 61.828,310.607 62.081,314.229 
				80.824,313.096 			"/>
			<polygon fill="#FFFFFF" stroke="#CCCCCC" stroke-miterlimit="10" points="62.081,314.229 62.329,317.804 81.062,316.496 
				80.824,313.096 			"/>
		</g>
	</g>
	<g id="korean">
		
			<rect x="476.347" y="257.075" transform="matrix(0.9976 -0.0696 0.0696 0.9976 -17.2634 34.1072)" fill="#FFFFFF" stroke="#CCCCCC" stroke-miterlimit="10" width="9.178" height="15.55"/>
		<polygon fill="#FFFFFF" stroke="#CCCCCC" stroke-miterlimit="10" points="547.933,299.419 554.649,298.948 558.857,298.652 
			558.02,286.662 547.093,287.425 547.848,298.223 		"/>
		<polygon fill="#FFFFFF" stroke="#CCCCCC" stroke-miterlimit="10" points="567.775,298.03 575.749,297.472 574.907,285.479 
			558.02,286.662 558.857,298.652 		"/>
		<polygon fill="#FFFFFF" stroke="#CCCCCC" stroke-miterlimit="10" points="730.329,254.46 725.855,254.771 726.376,262.308 
			735.342,261.68 734.814,254.144 		"/>
		<polygon fill="#FFFFFF" stroke="#CCCCCC" stroke-miterlimit="10" points="713.833,241.729 714.835,255.964 712.236,256.141 
			713.174,269.542 726.064,268.642 725.628,262.359 724.137,241.01 		"/>
		<polygon fill="#FFFFFF" stroke="#CCCCCC" stroke-miterlimit="10" points="717.233,291.554 717.82,291.512 716.902,278.368 
			707.024,279.056 707.943,292.204 		"/>
		
			<rect x="706.059" y="294.153" transform="matrix(-0.0697 -0.9976 0.9976 -0.0697 464.6209 1030.9248)" fill="#FFFFFF" stroke="#CCCCCC" stroke-miterlimit="10" width="13.931" height="9.319"/>
		<polygon fill="#FFFFFF" stroke="#CCCCCC" stroke-miterlimit="10" points="687.116,315.705 658.396,317.711 659.268,330.184 
			659.279,330.266 688.001,328.258 		"/>
		<polygon fill="#FFFFFF" stroke="#CCCCCC" stroke-miterlimit="10" points="679.385,329.617 681.059,353.575 691.348,352.088 
			689.729,328.892 		"/>
		<polygon fill="#FFFFFF" stroke="#CCCCCC" stroke-miterlimit="10" points="689.729,328.892 691.348,352.088 701.762,350.574 
			700.192,328.162 		"/>
		
			<rect x="659.793" y="330.778" transform="matrix(0.9976 -0.0696 0.0696 0.9976 -21.8802 46.9484)" fill="#FFFFFF" stroke="#CCCCCC" stroke-miterlimit="10" width="6.301" height="13.517"/>
		<polygon fill="#FFFFFF" stroke="#CCCCCC" stroke-miterlimit="10" points="540.479,343.431 540.479,343.431 540.404,342.385 
			540.402,342.344 540.402,342.344 539.572,330.477 534.538,330.834 534.538,330.832 516.266,332.108 516.895,341.088 
			523.176,340.647 523.6,346.742 528.975,346.364 540.622,345.55 		"/>
		<polygon fill="#FFFFFF" stroke="#CCCCCC" stroke-miterlimit="10" points="540.622,345.55 528.975,346.364 530.214,364.143 
			528.975,346.364 523.6,346.742 517.318,347.177 518.499,364.008 541.938,364.273 540.967,350.383 		"/>
		
			<rect x="565.27" y="326.925" transform="matrix(0.0698 0.9976 -0.9976 0.0698 867.4257 -263.8999)" fill="#FFFFFF" stroke="#CCCCCC" stroke-miterlimit="10" width="19.888" height="12.466"/>
		<polygon fill="#FFFFFF" stroke="#CCCCCC" stroke-miterlimit="10" points="541.938,364.273 551.023,364.375 550.336,354.588 
			547.363,354.795 547.04,350.152 540.98,350.574 		"/>
		<polygon fill="#FFFFFF" stroke="#CCCCCC" stroke-miterlimit="10" points="660.27,344.506 661.107,356.43 667.355,355.523 
			666.555,344.061 		"/>
		<polygon fill="#FFFFFF" stroke="#CCCCCC" stroke-miterlimit="10" points="679.385,329.617 673.4,330.038 665.613,330.583 
			667.355,355.523 675.106,354.412 681.059,353.575 		"/>
		<polygon fill="#FFFFFF" stroke="#CCCCCC" stroke-miterlimit="10" points="799.807,316.699 802.738,316.496 802.688,315.782 
			801.981,305.647 789.775,304.989 774.202,306.078 775.066,318.429 788.757,317.469 		"/>
		<polygon fill="#FFFFFF" stroke="#CCCCCC" stroke-miterlimit="10" points="775.066,318.429 776.532,339.403 790.127,337.063 
			788.757,317.469 		"/>
		<polygon fill="#FFFFFF" stroke="#CCCCCC" stroke-miterlimit="10" points="806.602,288.797 788.73,290.046 789.322,298.505 
			813.281,296.828 		"/>
		<polygon fill="#FFFFFF" stroke="#CCCCCC" stroke-miterlimit="10" points="645.786,338.89 636.866,339.514 638.281,359.728 
			647.161,358.544 		"/>
		<polygon fill="#FFFFFF" stroke="#CCCCCC" stroke-miterlimit="10" points="761.453,323.459 751.737,324.142 750.146,324.25 
			749.889,320.569 745.37,320.884 745.126,317.368 739.766,317.742 740.299,325.358 740.305,325.447 741.656,344.785 
			753.063,343.127 762.727,341.72 		"/>
		<polygon fill="#FFFFFF" stroke="#CCCCCC" stroke-miterlimit="10" points="585.756,343.089 577.15,343.693 578.618,364.69 
			577.15,343.693 561.389,344.794 562.77,364.51 587.274,364.793 		"/>
		<polygon fill="#FFFFFF" stroke="#CCCCCC" stroke-miterlimit="10" points="618.877,362.37 617.591,340.878 609.679,341.413 
			602.895,341.888 604.46,364.227 611.211,363.327 611.214,363.371 		"/>
		<polygon fill="#FFFFFF" stroke="#CCCCCC" stroke-miterlimit="10" points="593.664,342.539 595.226,364.874 593.664,342.539 
			585.756,343.089 587.274,364.793 599.206,364.928 604.46,364.227 602.895,341.888 		"/>
		<polygon fill="#FFFFFF" stroke="#CCCCCC" stroke-miterlimit="10" points="815.047,319.378 824.854,318.694 820.846,331.801 
			815.958,332.746 		"/>
		<polygon fill="#FFFFFF" stroke="#CCCCCC" stroke-miterlimit="10" points="808.6,319.783 815.047,319.378 815.958,332.746 
			809.531,333.723 		"/>
		
			<rect x="398.802" y="262.5" transform="matrix(0.9976 -0.0698 0.0698 0.9976 -18.2037 28.8289)" fill="#FFFFFF" stroke="#CCCCCC" stroke-miterlimit="10" width="9.262" height="24.81"/>
		<polygon fill="#FFFFFF" stroke="#CCCCCC" stroke-miterlimit="10" points="323.307,294.708 311.136,295.554 309.282,269.051 
			321.451,268.201 		"/>
		
			<rect x="298.034" y="269.472" transform="matrix(0.9976 -0.0695 0.0695 0.9976 -18.9081 21.8112)" fill="#FFFFFF" stroke="#CCCCCC" stroke-miterlimit="10" width="12.202" height="26.566"/>
	</g>
</g>
<g>
	<path fill="#8F8F8F" d="M397.768,421.512h5.313v10.485h0.069c0.527-0.916,1.092-1.76,1.653-2.604l5.349-7.884h6.614l-7.847,10.102
		l8.233,13.616h-6.229l-5.841-10.239l-2.005,2.498v7.741h-5.313v-23.717L397.768,421.512L397.768,421.512z"/>
	<path fill="#8F8F8F" d="M423.274,445.23l-5.63-23.718h5.735l1.795,9.746c0.526,2.853,1.021,5.911,1.406,8.341h0.07
		c0.388-2.604,0.948-5.453,1.549-8.409l2.005-9.678h5.7l1.898,9.993c0.527,2.779,0.915,5.313,1.269,7.951h0.068
		c0.354-2.64,0.882-5.418,1.373-8.27l1.937-9.678h5.454l-6.122,23.718h-5.808l-2.006-10.204c-0.458-2.395-0.846-4.609-1.126-7.318
		h-0.068c-0.425,2.675-0.812,4.927-1.373,7.318l-2.252,10.204L423.274,445.23L423.274,445.23z"/>
	<path fill="#8F8F8F" d="M454.27,439.142l-1.653,6.088h-5.562l7.249-23.718h7.002l7.392,23.718h-5.771l-1.829-6.088H454.27z
		 M460.285,435.13l-1.479-5.032c-0.388-1.405-0.811-3.2-1.159-4.572h-0.104c-0.317,1.406-0.704,3.202-1.057,4.572l-1.442,5.032
		H460.285z"/>
	<path fill="#8F8F8F" d="M471.858,445.23v-23.718h6.263l4.928,8.69c1.406,2.498,2.778,5.453,3.87,8.129h0.069
		c-0.315-3.133-0.422-6.334-0.422-9.924v-6.896h4.926v23.718h-5.63l-5.065-9.148c-1.407-2.568-2.991-5.594-4.117-8.375h-0.142
		c0.177,3.168,0.246,6.511,0.246,10.381v7.146L471.858,445.23L471.858,445.23z"/>
	<path fill="#8F8F8F" d="M515.942,444.137c-1.654,0.563-4.785,1.339-7.917,1.339c-4.328,0-7.46-1.093-9.644-3.167
		c-2.146-2.076-3.344-5.174-3.344-8.655c0.035-7.883,5.771-12.387,13.548-12.387c3.063,0,5.419,0.6,6.579,1.126l-1.125,4.326
		c-1.303-0.599-2.886-1.021-5.489-1.021c-4.47,0-7.882,2.533-7.882,7.67c0,4.928,3.098,7.776,7.494,7.776
		c1.196,0,2.183-0.143,2.604-0.315v-4.998h-3.658v-4.187h8.832L515.942,444.137L515.942,444.137z"/>
	<path fill="#8F8F8F" d="M524.769,421.512h5.351v14.989c0,6.756-3.236,9.113-8.41,9.113c-1.267,0-2.885-0.211-3.939-0.563l0.6-4.326
		c0.739,0.244,1.688,0.422,2.745,0.422c2.252,0,3.657-1.021,3.657-4.682L524.769,421.512L524.769,421.512L524.769,421.512z"/>
	<path fill="#8F8F8F" d="M540.073,439.142l-1.653,6.088h-5.561l7.249-23.718h7.002l7.391,23.718h-5.771l-1.829-6.088H540.073z
		 M546.09,435.13l-1.479-5.032c-0.39-1.405-0.812-3.2-1.161-4.572h-0.104c-0.315,1.406-0.704,3.202-1.057,4.572l-1.442,5.032H546.09
		z"/>
	<path fill="#8F8F8F" d="M557.661,445.23v-23.718h6.264l4.927,8.69c1.407,2.498,2.779,5.453,3.87,8.129h0.07
		c-0.316-3.133-0.423-6.334-0.423-9.924v-6.896h4.927v23.718h-5.631l-5.065-9.148c-1.405-2.568-2.989-5.594-4.115-8.375h-0.143
		c0.176,3.168,0.246,6.511,0.246,10.381v7.146L557.661,445.23L557.661,445.23z"/>
	<path fill="#8F8F8F" d="M601.745,444.137c-1.653,0.563-4.784,1.339-7.917,1.339c-4.327,0-7.46-1.093-9.644-3.167
		c-2.146-2.076-3.343-5.174-3.343-8.655c0.035-7.883,5.771-12.387,13.547-12.387c3.063,0,5.419,0.6,6.58,1.126l-1.126,4.326
		c-1.302-0.599-2.886-1.021-5.489-1.021c-4.469,0-7.882,2.533-7.882,7.67c0,4.928,3.099,7.776,7.495,7.776
		c1.195,0,2.184-0.143,2.604-0.315v-4.998h-3.659v-4.187h8.832L601.745,444.137L601.745,444.137z"/>
	<path fill="#8F8F8F" d="M633.092,436.151c-0.104-2.853-0.212-6.266-0.212-9.746h-0.07c-0.771,3.023-1.759,6.401-2.674,9.184
		l-2.887,9.254h-4.188l-2.532-9.146c-0.772-2.814-1.548-6.156-2.146-9.289h-0.07c-0.104,3.202-0.245,6.86-0.388,9.815l-0.457,9.01
		h-4.962l1.514-23.718h7.145l2.322,7.952c0.772,2.709,1.479,5.665,2.006,8.444h0.142c0.634-2.744,1.441-5.842,2.252-8.516
		l2.498-7.884h7.037l1.27,23.718h-5.209L633.092,436.151z"/>
	<path fill="#8F8F8F" d="M648.286,439.142l-1.653,6.088h-5.561l7.249-23.718h7.002l7.391,23.718h-5.771l-1.829-6.088H648.286z
		 M654.303,435.13l-1.479-5.032c-0.39-1.405-0.812-3.2-1.161-4.572h-0.104c-0.315,1.406-0.703,3.202-1.056,4.572l-1.443,5.032
		H654.303z"/>
	<path fill="#8F8F8F" d="M665.876,421.866c1.724-0.316,4.258-0.527,7.143-0.527c3.521,0,5.98,0.527,7.673,1.898
		c1.44,1.127,2.217,2.78,2.217,4.963c0,2.989-2.146,5.065-4.188,5.806v0.104c1.653,0.668,2.568,2.217,3.167,4.396
		c0.739,2.709,1.441,5.808,1.899,6.723h-5.488c-0.353-0.669-0.95-2.604-1.619-5.523c-0.668-2.991-1.688-3.766-3.903-3.801h-1.584
		v9.324h-5.313L665.876,421.866L665.876,421.866z M671.189,432.034h2.108c2.675,0,4.258-1.336,4.258-3.412
		c0-2.146-1.479-3.271-3.938-3.271c-1.302,0-2.041,0.067-2.428,0.176V432.034z"/>
	<path fill="#8F8F8F" d="M686.737,421.512h5.313v10.485h0.069c0.525-0.916,1.092-1.76,1.652-2.604l5.35-7.884h6.615l-7.849,10.102
		l8.232,13.616h-6.229l-5.842-10.239l-2.005,2.498v7.741h-5.313v-23.717L686.737,421.512L686.737,421.512z"/>
	<path fill="#8F8F8F" d="M722.448,435.202h-8.729v5.629h9.747v4.398H708.37v-23.718h14.604v4.397h-9.254v4.927h8.729V435.202z"/>
	<path fill="#8F8F8F" d="M731.733,426.018h-6.403v-4.506h18.228v4.506h-6.476v19.212h-5.349V426.018z"/>
</g>
</svg>
